<svg id="svg" version="1.1" xmlns="http://www.w3.org/2000/svg" xmlns:xlink="http://www.w3.org/1999/xlink" width="400" height="400" viewBox="0, 0, 400,400"><g id="svgg"><path id="path0" d="M192.417 51.182 C 162.618 52.650,133.768 63.205,109.833 81.398 C 93.595 93.741,79.838 109.568,69.922 127.317 C 42.061 177.183,45.210 239.069,77.970 285.500 C 118.079 342.346,191.315 364.096,255.583 338.248 C 259.539 336.657,266.923 333.289,268.856 332.194 C 269.164 332.019,270.879 331.065,272.667 330.075 C 296.390 316.932,316.932 296.390,330.075 272.667 C 331.065 270.879,332.019 269.164,332.194 268.856 C 336.227 261.738,341.912 246.801,344.484 236.562 C 362.624 164.340,324.937 89.952,256.000 61.910 C 236.048 53.794,214.204 50.108,192.417 51.182 M232.824 104.367 C 239.304 106.597,244.385 108.928,250.833 112.632 C 270.006 123.643,285.629 141.767,294.033 162.750 C 294.899 164.911,296.833 170.629,296.833 171.026 C 296.833 171.323,296.152 171.333,276.708 171.333 L 256.583 171.333 256.166 170.546 C 250.323 159.494,239.983 149.159,229.542 143.932 L 228.667 143.494 228.667 123.256 L 228.667 103.018 229.533 103.275 C 230.009 103.417,231.490 103.908,232.824 104.367 M171.333 123.313 L 171.333 143.458 169.479 144.497 C 158.785 150.485,150.485 158.785,144.497 169.479 L 143.458 171.333 123.313 171.333 C 103.640 171.333,103.167 171.326,103.167 171.017 C 103.167 169.991,106.093 162.251,108.266 157.531 C 118.937 134.350,138.713 115.587,162.500 106.077 C 164.899 105.118,170.534 103.185,170.958 103.175 L 171.333 103.167 171.333 123.313 M143.932 229.542 C 149.063 239.791,158.354 249.231,169.625 255.647 L 171.167 256.525 171.167 276.679 C 171.167 293.439,171.129 296.833,170.943 296.833 C 170.126 296.833,162.577 294.037,158.750 292.317 C 137.988 282.984,121.707 267.677,110.373 246.833 C 108.106 242.666,104.734 234.445,103.275 229.533 L 103.018 228.667 123.256 228.667 L 143.494 228.667 143.932 229.542 M296.746 229.462 C 288.812 256.179,268.527 279.597,243.000 291.509 C 238.057 293.816,229.093 297.180,228.639 296.899 C 228.562 296.852,228.500 287.787,228.500 276.754 L 228.500 256.694 229.958 255.903 C 240.896 249.972,250.104 240.776,255.849 230.044 L 256.583 228.671 276.783 228.669 L 296.982 228.667 296.746 229.462 " stroke="none" fill="#0493fb" fill-rule="evenodd"></path><path id="path1" d="M0.000 200.000 L 0.000 400.000 200.000 400.000 L 400.000 400.000 400.000 200.000 L 400.000 0.000 200.000 0.000 L 0.000 0.000 0.000 200.000 M209.667 51.163 C 229.822 52.620,247.668 57.333,265.250 65.841 C 340.490 102.251,371.050 194.755,332.324 268.870 C 295.698 338.965,211.208 368.340,138.950 336.100 C 95.286 316.618,63.365 276.698,53.776 229.583 C 51.109 216.476,50.229 201.493,51.341 188.083 C 52.630 172.529,56.013 158.188,61.811 143.711 C 62.551 141.861,65.895 134.519,66.575 133.250 C 66.967 132.517,67.836 130.867,68.505 129.583 C 81.431 104.781,104.781 81.431,129.583 68.505 C 130.867 67.836,132.517 66.967,133.250 66.575 C 142.422 61.662,157.961 56.311,170.417 53.776 C 182.420 51.333,197.829 50.307,209.667 51.163 M169.667 103.667 C 146.952 110.177,124.015 128.873,111.856 150.791 C 108.404 157.014,103.333 169.060,103.333 171.038 C 103.333 171.109,112.353 171.167,123.377 171.167 L 143.421 171.167 144.240 169.625 C 149.659 159.422,159.422 149.659,169.625 144.240 L 171.167 143.421 171.167 123.377 C 171.167 107.447,171.124 103.336,170.958 103.345 C 170.844 103.352,170.262 103.497,169.667 103.667 M228.837 123.375 L 228.840 143.417 230.828 144.477 C 240.886 149.842,251.363 160.510,256.101 170.208 L 256.569 171.167 276.637 171.167 L 296.704 171.167 296.587 170.542 C 296.004 167.433,290.847 155.413,287.952 150.417 C 277.446 132.281,263.144 118.763,244.640 109.478 C 239.872 107.085,230.311 103.333,228.981 103.333 C 228.896 103.333,228.835 111.805,228.837 123.375 M103.333 228.898 C 103.333 230.308,107.001 239.705,109.478 244.640 C 121.638 268.872,141.671 286.501,167.333 295.551 C 168.754 296.052,170.160 296.514,170.458 296.578 L 171.000 296.693 171.000 276.599 L 171.000 256.505 170.007 256.004 C 160.144 251.025,150.023 241.049,144.479 230.841 L 143.298 228.667 123.316 228.667 C 106.380 228.667,103.333 228.702,103.333 228.898 M256.369 229.375 C 256.190 229.673,255.754 230.479,255.400 231.167 C 250.773 240.152,240.052 250.752,230.542 255.745 L 228.667 256.729 228.667 276.771 L 228.667 296.812 229.818 296.493 C 250.060 290.884,271.388 274.906,284.139 255.799 C 288.992 248.527,295.656 234.426,296.587 229.458 L 296.704 228.833 276.699 228.833 L 256.694 228.833 256.369 229.375 " stroke="none" fill="#2c2c34" fill-rule="evenodd"></path><path id="path2" d="M193.628 51.121 C 193.928 51.158,194.378 51.157,194.628 51.119 C 194.878 51.081,194.633 51.051,194.083 51.052 C 193.533 51.053,193.328 51.084,193.628 51.121 M205.461 51.121 C 205.761 51.158,206.211 51.157,206.461 51.119 C 206.712 51.081,206.467 51.051,205.917 51.052 C 205.367 51.053,205.162 51.084,205.461 51.121 M190.375 51.282 C 190.535 51.323,190.798 51.323,190.958 51.282 C 191.119 51.240,190.987 51.205,190.667 51.205 C 190.346 51.205,190.215 51.240,190.375 51.282 M209.042 51.282 C 209.202 51.323,209.465 51.323,209.625 51.282 C 209.785 51.240,209.654 51.205,209.333 51.205 C 209.012 51.205,208.881 51.240,209.042 51.282 M99.740 89.708 L 99.250 90.250 99.792 89.760 C 100.090 89.491,100.333 89.248,100.333 89.219 C 100.333 89.090,100.196 89.203,99.740 89.708 M97.661 91.625 L 96.750 92.583 97.708 91.672 C 98.599 90.826,98.743 90.667,98.619 90.667 C 98.593 90.667,98.162 91.098,97.661 91.625 M301.993 91.375 C 302.684 92.111,302.833 92.243,302.833 92.118 C 302.833 92.091,302.477 91.735,302.042 91.326 L 301.250 90.583 301.993 91.375 M91.494 97.792 L 90.583 98.750 91.542 97.839 C 92.432 96.993,92.576 96.833,92.453 96.833 C 92.427 96.833,91.995 97.265,91.494 97.792 M308.500 97.917 C 308.998 98.421,309.443 98.833,309.489 98.833 C 309.534 98.833,309.165 98.421,308.667 97.917 C 308.169 97.412,307.724 97.000,307.678 97.000 C 307.632 97.000,308.002 97.412,308.500 97.917 M89.573 99.875 L 89.083 100.417 89.625 99.927 C 89.923 99.658,90.167 99.414,90.167 99.385 C 90.167 99.257,90.029 99.370,89.573 99.875 M171.167 123.367 C 171.121 134.523,171.140 143.593,171.209 143.524 C 171.278 143.455,171.316 134.328,171.292 123.241 L 171.250 103.083 171.167 123.367 M266.833 124.219 C 266.833 124.248,267.077 124.491,267.375 124.760 L 267.917 125.250 267.427 124.708 C 266.971 124.203,266.833 124.090,266.833 124.219 M130.411 126.708 L 129.417 127.750 130.458 126.755 C 131.031 126.208,131.500 125.739,131.500 125.714 C 131.500 125.590,131.336 125.741,130.411 126.708 M269.160 126.375 C 269.850 127.111,270.000 127.243,270.000 127.118 C 270.000 127.091,269.644 126.735,269.208 126.326 L 268.417 125.583 269.160 126.375 M126.578 130.542 L 125.583 131.583 126.625 130.589 C 127.198 130.041,127.667 129.573,127.667 129.547 C 127.667 129.424,127.502 129.574,126.578 130.542 M273.500 130.750 C 273.998 131.254,274.443 131.667,274.489 131.667 C 274.534 131.667,274.165 131.254,273.667 130.750 C 273.169 130.246,272.724 129.833,272.678 129.833 C 272.632 129.833,273.002 130.246,273.500 130.750 M241.500 152.052 C 241.500 152.081,241.744 152.325,242.042 152.594 L 242.583 153.083 242.094 152.542 C 241.638 152.037,241.500 151.923,241.500 152.052 M157.324 153.125 L 156.750 153.750 157.375 153.176 C 157.957 152.641,158.077 152.500,157.949 152.500 C 157.922 152.500,157.640 152.781,157.324 153.125 M244.833 155.250 C 245.701 156.121,246.448 156.833,246.493 156.833 C 246.539 156.833,245.867 156.121,245.000 155.250 C 244.133 154.379,243.386 153.667,243.340 153.667 C 243.294 153.667,243.966 154.379,244.833 155.250 M155.075 155.208 L 154.417 155.917 155.125 155.258 C 155.784 154.645,155.910 154.500,155.784 154.500 C 155.757 154.500,155.438 154.819,155.075 155.208 M152.991 157.458 L 152.417 158.083 153.042 157.509 C 153.385 157.193,153.667 156.912,153.667 156.884 C 153.667 156.757,153.526 156.877,152.991 157.458 M247.000 157.552 C 247.000 157.581,247.244 157.825,247.542 158.094 L 248.083 158.583 247.594 158.042 C 247.138 157.537,247.000 157.423,247.000 157.552 M123.333 171.167 L 103.083 171.252 123.282 171.293 C 136.612 171.320,143.515 171.277,143.583 171.167 C 143.640 171.075,143.663 171.018,143.635 171.041 C 143.607 171.063,134.471 171.120,123.333 171.167 M266.542 171.292 C 272.110 171.316,281.223 171.316,286.792 171.292 C 292.360 171.267,287.804 171.247,276.667 171.247 C 265.529 171.247,260.973 171.267,266.542 171.292 M51.205 190.667 C 51.205 190.987,51.240 191.119,51.282 190.958 C 51.323 190.798,51.323 190.535,51.282 190.375 C 51.240 190.215,51.205 190.346,51.205 190.667 M348.705 190.667 C 348.705 190.987,348.740 191.119,348.782 190.958 C 348.823 190.798,348.823 190.535,348.782 190.375 C 348.740 190.215,348.705 190.346,348.705 190.667 M348.881 193.750 C 348.882 194.208,348.915 194.376,348.953 194.123 C 348.991 193.869,348.990 193.494,348.951 193.289 C 348.911 193.084,348.880 193.292,348.881 193.750 M51.052 194.083 C 51.053 194.633,51.084 194.838,51.121 194.539 C 51.158 194.239,51.157 193.789,51.119 193.539 C 51.081 193.288,51.051 193.533,51.052 194.083 M51.052 205.917 C 51.053 206.467,51.084 206.672,51.121 206.372 C 51.158 206.072,51.157 205.622,51.119 205.372 C 51.081 205.122,51.051 205.367,51.052 205.917 M348.881 206.250 C 348.882 206.708,348.915 206.876,348.953 206.623 C 348.991 206.369,348.990 205.994,348.951 205.789 C 348.911 205.584,348.880 205.792,348.881 206.250 M51.205 209.333 C 51.205 209.654,51.240 209.785,51.282 209.625 C 51.323 209.465,51.323 209.202,51.282 209.042 C 51.240 208.881,51.205 209.012,51.205 209.333 M348.705 209.333 C 348.705 209.654,348.740 209.785,348.782 209.625 C 348.823 209.465,348.823 209.202,348.782 209.042 C 348.740 208.881,348.705 209.012,348.705 209.333 M152.000 241.552 C 152.000 241.581,152.244 241.825,152.542 242.094 L 153.083 242.583 152.594 242.042 C 152.138 241.537,152.000 241.423,152.000 241.552 M246.167 243.417 C 245.762 243.829,245.468 244.167,245.514 244.167 C 245.560 244.167,245.928 243.829,246.333 243.417 C 246.738 243.004,247.032 242.667,246.986 242.667 C 246.940 242.667,246.572 243.004,246.167 243.417 M155.167 244.917 C 156.034 245.787,156.781 246.500,156.827 246.500 C 156.873 246.500,156.201 245.787,155.333 244.917 C 154.466 244.046,153.719 243.333,153.673 243.333 C 153.627 243.333,154.299 244.046,155.167 244.917 M243.333 246.250 C 242.928 246.662,242.635 247.000,242.681 247.000 C 242.726 247.000,243.095 246.662,243.500 246.250 C 243.905 245.838,244.199 245.500,244.153 245.500 C 244.107 245.500,243.738 245.838,243.333 246.250 M157.500 247.052 C 157.500 247.081,157.744 247.325,158.042 247.594 L 158.583 248.083 158.094 247.542 C 157.638 247.037,157.500 246.923,157.500 247.052 M228.611 256.611 C 228.457 256.765,228.471 296.795,228.625 296.891 C 228.694 296.933,228.750 287.863,228.750 276.734 C 228.750 265.605,228.744 256.500,228.736 256.500 C 228.728 256.500,228.672 256.550,228.611 256.611 M124.167 266.885 C 124.167 266.914,124.410 267.158,124.708 267.427 L 125.250 267.917 124.760 267.375 C 124.304 266.870,124.167 266.757,124.167 266.885 M273.667 269.083 C 273.262 269.496,272.968 269.833,273.014 269.833 C 273.060 269.833,273.428 269.496,273.833 269.083 C 274.238 268.671,274.532 268.333,274.486 268.333 C 274.440 268.333,274.072 268.671,273.667 269.083 M126.326 269.208 C 126.735 269.644,127.091 270.000,127.118 270.000 C 127.243 270.000,127.111 269.850,126.375 269.160 L 125.583 268.417 126.326 269.208 M130.667 273.583 C 131.165 274.087,131.609 274.500,131.655 274.500 C 131.701 274.500,131.331 274.087,130.833 273.583 C 130.335 273.079,129.891 272.667,129.845 272.667 C 129.799 272.667,130.169 273.079,130.667 273.583 M269.000 273.750 C 268.595 274.162,268.301 274.500,268.347 274.500 C 268.393 274.500,268.762 274.162,269.167 273.750 C 269.572 273.337,269.865 273.000,269.819 273.000 C 269.774 273.000,269.405 273.337,269.000 273.750 M310.406 300.042 L 309.917 300.583 310.458 300.094 C 310.963 299.638,311.077 299.500,310.948 299.500 C 310.919 299.500,310.675 299.744,310.406 300.042 M308.494 302.125 L 307.583 303.083 308.542 302.172 C 309.069 301.671,309.500 301.240,309.500 301.214 C 309.500 301.090,309.341 301.235,308.494 302.125 M91.326 302.042 C 91.735 302.477,92.091 302.833,92.118 302.833 C 92.243 302.833,92.111 302.684,91.375 301.993 L 90.583 301.250 91.326 302.042 M97.833 308.583 C 98.331 309.087,98.776 309.500,98.822 309.500 C 98.868 309.500,98.498 309.087,98.000 308.583 C 97.502 308.079,97.057 307.667,97.011 307.667 C 96.966 307.667,97.335 308.079,97.833 308.583 M301.994 308.625 L 301.083 309.583 302.042 308.672 C 302.569 308.171,303.000 307.740,303.000 307.714 C 303.000 307.590,302.841 307.735,301.994 308.625 M299.906 310.542 L 299.417 311.083 299.958 310.594 C 300.463 310.138,300.577 310.000,300.448 310.000 C 300.419 310.000,300.175 310.244,299.906 310.542 M190.375 348.782 C 190.535 348.823,190.798 348.823,190.958 348.782 C 191.119 348.740,190.987 348.705,190.667 348.705 C 190.346 348.705,190.215 348.740,190.375 348.782 M209.042 348.782 C 209.202 348.823,209.465 348.823,209.625 348.782 C 209.785 348.740,209.654 348.705,209.333 348.705 C 209.012 348.705,208.881 348.740,209.042 348.782 M193.377 348.953 C 193.631 348.991,194.006 348.990,194.211 348.951 C 194.416 348.911,194.208 348.880,193.750 348.881 C 193.292 348.882,193.124 348.915,193.377 348.953 M205.877 348.953 C 206.131 348.991,206.506 348.990,206.711 348.951 C 206.916 348.911,206.708 348.880,206.250 348.881 C 205.792 348.882,205.624 348.915,205.877 348.953 " stroke="none" fill="#14649c" fill-rule="evenodd"></path><path id="path3" d="M198.708 50.957 C 199.419 50.988,200.581 50.988,201.292 50.957 C 202.002 50.926,201.421 50.900,200.000 50.900 C 198.579 50.900,197.998 50.926,198.708 50.957 M94.500 94.583 C 93.817 95.271,93.296 95.833,93.342 95.833 C 93.388 95.833,93.984 95.271,94.667 94.583 C 95.350 93.896,95.871 93.333,95.825 93.333 C 95.779 93.333,95.183 93.896,94.500 94.583 M304.167 93.379 C 304.167 93.404,304.748 93.986,305.458 94.671 L 306.750 95.917 305.504 94.625 C 304.347 93.425,304.167 93.257,304.167 93.379 M271.417 128.667 C 272.053 129.308,272.612 129.833,272.658 129.833 C 272.704 129.833,272.220 129.308,271.583 128.667 C 270.947 128.025,270.388 127.500,270.342 127.500 C 270.296 127.500,270.780 128.025,271.417 128.667 M128.494 128.625 L 127.583 129.583 128.542 128.672 C 129.432 127.826,129.576 127.667,129.453 127.667 C 129.427 127.667,128.995 128.098,128.494 128.625 M349.068 200.000 C 349.068 201.512,349.093 202.131,349.124 201.375 C 349.155 200.619,349.155 199.381,349.124 198.625 C 349.093 197.869,349.068 198.487,349.068 200.000 M50.900 200.000 C 50.900 201.421,50.926 202.002,50.957 201.292 C 50.988 200.581,50.988 199.419,50.957 198.708 C 50.926 197.998,50.900 198.579,50.900 200.000 M271.330 271.458 L 269.750 273.083 271.375 271.503 C 272.884 270.036,273.076 269.833,272.955 269.833 C 272.930 269.833,272.199 270.565,271.330 271.458 M128.583 271.500 C 129.220 272.142,129.779 272.667,129.824 272.667 C 129.870 272.667,129.387 272.142,128.750 271.500 C 128.113 270.858,127.555 270.333,127.509 270.333 C 127.463 270.333,127.947 270.858,128.583 271.500 M93.333 304.213 C 93.333 304.238,93.915 304.819,94.625 305.504 L 95.917 306.750 94.671 305.458 C 93.514 304.259,93.333 304.091,93.333 304.213 M305.333 305.417 C 304.650 306.104,304.129 306.667,304.175 306.667 C 304.221 306.667,304.817 306.104,305.500 305.417 C 306.183 304.729,306.704 304.167,306.658 304.167 C 306.612 304.167,306.016 304.729,305.333 305.417 M198.625 349.124 C 199.381 349.155,200.619 349.155,201.375 349.124 C 202.131 349.093,201.512 349.068,200.000 349.068 C 198.487 349.068,197.869 349.093,198.625 349.124 " stroke="none" fill="#1c517e" fill-rule="evenodd"></path><path id="path4" d="M196.128 50.954 C 196.428 50.991,196.878 50.990,197.128 50.952 C 197.378 50.914,197.133 50.884,196.583 50.885 C 196.033 50.886,195.828 50.917,196.128 50.954 M202.961 50.954 C 203.261 50.991,203.711 50.990,203.961 50.952 C 204.212 50.914,203.967 50.884,203.417 50.885 C 202.867 50.886,202.662 50.917,202.961 50.954 M299.833 89.219 C 299.833 89.248,300.077 89.491,300.375 89.760 L 300.917 90.250 300.427 89.708 C 299.971 89.203,299.833 89.090,299.833 89.219 M96.829 92.292 L 95.750 93.417 96.875 92.338 C 97.494 91.745,98.000 91.239,98.000 91.213 C 98.000 91.090,97.830 91.247,96.829 92.292 M303.000 92.250 C 303.591 92.846,304.111 93.333,304.157 93.333 C 304.203 93.333,303.757 92.846,303.167 92.250 C 302.576 91.654,302.055 91.167,302.010 91.167 C 301.964 91.167,302.409 91.654,303.000 92.250 M92.162 96.958 L 91.083 98.083 92.208 97.005 C 92.827 96.412,93.333 95.905,93.333 95.880 C 93.333 95.757,93.164 95.913,92.162 96.958 M307.667 96.917 C 308.257 97.513,308.778 98.000,308.824 98.000 C 308.870 98.000,308.424 97.513,307.833 96.917 C 307.243 96.321,306.722 95.833,306.676 95.833 C 306.630 95.833,307.076 96.321,307.667 96.917 M228.708 123.292 L 228.749 143.417 228.792 123.426 C 228.826 107.688,228.879 103.407,229.042 103.304 C 229.190 103.210,229.166 103.171,228.958 103.169 C 228.682 103.167,228.669 104.220,228.708 123.292 M131.000 126.250 C 130.595 126.662,130.301 127.000,130.347 127.000 C 130.393 127.000,130.762 126.662,131.167 126.250 C 131.572 125.837,131.865 125.500,131.819 125.500 C 131.774 125.500,131.405 125.837,131.000 126.250 M268.667 126.083 C 268.978 126.404,269.270 126.667,269.315 126.667 C 269.361 126.667,269.144 126.404,268.833 126.083 C 268.522 125.763,268.230 125.500,268.185 125.500 C 268.139 125.500,268.356 125.763,268.667 126.083 M126.167 131.083 C 125.762 131.496,125.468 131.833,125.514 131.833 C 125.560 131.833,125.928 131.496,126.333 131.083 C 126.738 130.671,127.032 130.333,126.986 130.333 C 126.940 130.333,126.572 130.671,126.167 131.083 M273.750 131.167 C 274.108 131.533,274.438 131.833,274.484 131.833 C 274.530 131.833,274.275 131.533,273.917 131.167 C 273.559 130.800,273.228 130.500,273.182 130.500 C 273.137 130.500,273.392 130.800,273.750 131.167 M244.833 155.083 C 245.144 155.404,245.436 155.667,245.482 155.667 C 245.528 155.667,245.311 155.404,245.000 155.083 C 244.689 154.762,244.397 154.500,244.351 154.500 C 244.305 154.500,244.522 154.762,244.833 155.083 M50.885 196.583 C 50.886 197.133,50.917 197.338,50.954 197.039 C 50.991 196.739,50.990 196.289,50.952 196.039 C 50.914 195.788,50.884 196.033,50.885 196.583 M349.050 196.500 C 349.050 197.004,349.081 197.210,349.119 196.958 C 349.158 196.706,349.158 196.294,349.119 196.042 C 349.081 195.790,349.050 195.996,349.050 196.500 M50.885 203.417 C 50.886 203.967,50.917 204.172,50.954 203.872 C 50.991 203.572,50.990 203.122,50.952 202.872 C 50.914 202.622,50.884 202.867,50.885 203.417 M349.050 203.500 C 349.050 204.004,349.081 204.210,349.119 203.958 C 349.158 203.706,349.158 203.294,349.119 203.042 C 349.081 202.790,349.050 202.996,349.050 203.500 M256.609 228.792 C 256.567 228.860,265.539 228.897,276.547 228.874 C 292.483 228.839,296.589 228.873,296.695 229.040 C 296.791 229.191,296.829 229.168,296.831 228.958 C 296.833 228.649,256.800 228.484,256.609 228.792 M244.831 244.958 L 242.917 246.917 244.875 245.003 C 245.952 243.950,246.833 243.069,246.833 243.044 C 246.833 242.924,246.608 243.139,244.831 244.958 M155.000 244.917 C 155.311 245.237,155.603 245.500,155.649 245.500 C 155.695 245.500,155.478 245.237,155.167 244.917 C 154.856 244.596,154.564 244.333,154.518 244.333 C 154.472 244.333,154.689 244.596,155.000 244.917 M171.000 276.617 C 170.954 287.727,170.973 296.760,171.042 296.691 C 171.111 296.622,171.149 287.532,171.126 276.491 L 171.083 256.417 171.000 276.617 M126.000 268.750 C 126.311 269.071,126.603 269.333,126.649 269.333 C 126.695 269.333,126.478 269.071,126.167 268.750 C 125.856 268.429,125.564 268.167,125.518 268.167 C 125.472 268.167,125.689 268.429,126.000 268.750 M273.824 268.792 L 273.250 269.417 273.875 268.842 C 274.219 268.526,274.500 268.245,274.500 268.217 C 274.500 268.090,274.359 268.210,273.824 268.792 M131.083 273.833 C 131.441 274.200,131.772 274.500,131.818 274.500 C 131.863 274.500,131.608 274.200,131.250 273.833 C 130.892 273.467,130.562 273.167,130.516 273.167 C 130.470 273.167,130.725 273.467,131.083 273.833 M268.658 273.958 L 268.083 274.583 268.708 274.009 C 269.052 273.693,269.333 273.412,269.333 273.384 C 269.333 273.257,269.192 273.377,268.658 273.958 M89.167 299.885 C 89.167 299.914,89.410 300.158,89.708 300.427 L 90.250 300.917 89.760 300.375 C 89.304 299.870,89.167 299.757,89.167 299.885 M92.167 303.083 C 92.757 303.679,93.278 304.167,93.324 304.167 C 93.370 304.167,92.924 303.679,92.333 303.083 C 91.743 302.487,91.222 302.000,91.176 302.000 C 91.130 302.000,91.576 302.487,92.167 303.083 M307.828 302.958 L 306.917 303.917 307.875 303.006 C 308.765 302.159,308.910 302.000,308.786 302.000 C 308.760 302.000,308.329 302.431,307.828 302.958 M96.833 307.750 C 97.424 308.346,97.945 308.833,97.990 308.833 C 98.036 308.833,97.591 308.346,97.000 307.750 C 96.409 307.154,95.889 306.667,95.843 306.667 C 95.797 306.667,96.243 307.154,96.833 307.750 M302.828 307.958 L 301.917 308.917 302.875 308.006 C 303.402 307.505,303.833 307.073,303.833 307.047 C 303.833 306.924,303.674 307.068,302.828 307.958 M196.042 349.119 C 196.294 349.158,196.706 349.158,196.958 349.119 C 197.210 349.081,197.004 349.050,196.500 349.050 C 195.996 349.050,195.790 349.081,196.042 349.119 M203.042 349.119 C 203.294 349.158,203.706 349.158,203.958 349.119 C 204.210 349.081,204.004 349.050,203.500 349.050 C 202.996 349.050,202.790 349.081,203.042 349.119 " stroke="none" fill="#244860" fill-rule="evenodd"></path><path id="path0" d="M192.417 51.182 C 162.618 52.650,133.768 63.205,109.833 81.398 C 93.595 93.741,79.838 109.568,69.922 127.317 C 42.061 177.183,45.210 239.069,77.970 285.500 C 118.079 342.346,191.315 364.096,255.583 338.248 C 259.539 336.657,266.923 333.289,268.856 332.194 C 269.164 332.019,270.879 331.065,272.667 330.075 C 296.390 316.932,316.932 296.390,330.075 272.667 C 331.065 270.879,332.019 269.164,332.194 268.856 C 336.227 261.738,341.912 246.801,344.484 236.562 C 362.624 164.340,324.937 89.952,256.000 61.910 C 236.048 53.794,214.204 50.108,192.417 51.182 M232.824 104.367 C 239.304 106.597,244.385 108.928,250.833 112.632 C 270.006 123.643,285.629 141.767,294.033 162.750 C 294.899 164.911,296.833 170.629,296.833 171.026 C 296.833 171.323,296.152 171.333,276.708 171.333 L 256.583 171.333 256.166 170.546 C 250.323 159.494,239.983 149.159,229.542 143.932 L 228.667 143.494 228.667 123.256 L 228.667 103.018 229.533 103.275 C 230.009 103.417,231.490 103.908,232.824 104.367 M171.333 123.313 L 171.333 143.458 169.479 144.497 C 158.785 150.485,150.485 158.785,144.497 169.479 L 143.458 171.333 123.313 171.333 C 103.640 171.333,103.167 171.326,103.167 171.017 C 103.167 169.991,106.093 162.251,108.266 157.531 C 118.937 134.350,138.713 115.587,162.500 106.077 C 164.899 105.118,170.534 103.185,170.958 103.175 L 171.333 103.167 171.333 123.313 M143.932 229.542 C 149.063 239.791,158.354 249.231,169.625 255.647 L 171.167 256.525 171.167 276.679 C 171.167 293.439,171.129 296.833,170.943 296.833 C 170.126 296.833,162.577 294.037,158.750 292.317 C 137.988 282.984,121.707 267.677,110.373 246.833 C 108.106 242.666,104.734 234.445,103.275 229.533 L 103.018 228.667 123.256 228.667 L 143.494 228.667 143.932 229.542 M296.746 229.462 C 288.812 256.179,268.527 279.597,243.000 291.509 C 238.057 293.816,229.093 297.180,228.639 296.899 C 228.562 296.852,228.500 287.787,228.500 276.754 L 228.500 256.694 229.958 255.903 C 240.896 249.972,250.104 240.776,255.849 230.044 L 256.583 228.671 276.783 228.669 L 296.982 228.667 296.746 229.462 " stroke="none" fill="#0493fb" fill-rule="evenodd"></path><path id="path1" d="M0.000 200.000 L 0.000 400.000 200.000 400.000 L 400.000 400.000 400.000 200.000 L 400.000 0.000 200.000 0.000 L 0.000 0.000 0.000 200.000 M209.667 51.163 C 229.822 52.620,247.668 57.333,265.250 65.841 C 340.490 102.251,371.050 194.755,332.324 268.870 C 295.698 338.965,211.208 368.340,138.950 336.100 C 95.286 316.618,63.365 276.698,53.776 229.583 C 51.109 216.476,50.229 201.493,51.341 188.083 C 52.630 172.529,56.013 158.188,61.811 143.711 C 62.551 141.861,65.895 134.519,66.575 133.250 C 66.967 132.517,67.836 130.867,68.505 129.583 C 81.431 104.781,104.781 81.431,129.583 68.505 C 130.867 67.836,132.517 66.967,133.250 66.575 C 142.422 61.662,157.961 56.311,170.417 53.776 C 182.420 51.333,197.829 50.307,209.667 51.163 M169.667 103.667 C 146.952 110.177,124.015 128.873,111.856 150.791 C 108.404 157.014,103.333 169.060,103.333 171.038 C 103.333 171.109,112.353 171.167,123.377 171.167 L 143.421 171.167 144.240 169.625 C 149.659 159.422,159.422 149.659,169.625 144.240 L 171.167 143.421 171.167 123.377 C 171.167 107.447,171.124 103.336,170.958 103.345 C 170.844 103.352,170.262 103.497,169.667 103.667 M228.837 123.375 L 228.840 143.417 230.828 144.477 C 240.886 149.842,251.363 160.510,256.101 170.208 L 256.569 171.167 276.637 171.167 L 296.704 171.167 296.587 170.542 C 296.004 167.433,290.847 155.413,287.952 150.417 C 277.446 132.281,263.144 118.763,244.640 109.478 C 239.872 107.085,230.311 103.333,228.981 103.333 C 228.896 103.333,228.835 111.805,228.837 123.375 M103.333 228.898 C 103.333 230.308,107.001 239.705,109.478 244.640 C 121.638 268.872,141.671 286.501,167.333 295.551 C 168.754 296.052,170.160 296.514,170.458 296.578 L 171.000 296.693 171.000 276.599 L 171.000 256.505 170.007 256.004 C 160.144 251.025,150.023 241.049,144.479 230.841 L 143.298 228.667 123.316 228.667 C 106.380 228.667,103.333 228.702,103.333 228.898 M256.369 229.375 C 256.190 229.673,255.754 230.479,255.400 231.167 C 250.773 240.152,240.052 250.752,230.542 255.745 L 228.667 256.729 228.667 276.771 L 228.667 296.812 229.818 296.493 C 250.060 290.884,271.388 274.906,284.139 255.799 C 288.992 248.527,295.656 234.426,296.587 229.458 L 296.704 228.833 276.699 228.833 L 256.694 228.833 256.369 229.375 " stroke="none" fill="#2c2c34" fill-rule="evenodd"></path><path id="path2" d="M193.628 51.121 C 193.928 51.158,194.378 51.157,194.628 51.119 C 194.878 51.081,194.633 51.051,194.083 51.052 C 193.533 51.053,193.328 51.084,193.628 51.121 M205.461 51.121 C 205.761 51.158,206.211 51.157,206.461 51.119 C 206.712 51.081,206.467 51.051,205.917 51.052 C 205.367 51.053,205.162 51.084,205.461 51.121 M190.375 51.282 C 190.535 51.323,190.798 51.323,190.958 51.282 C 191.119 51.240,190.987 51.205,190.667 51.205 C 190.346 51.205,190.215 51.240,190.375 51.282 M209.042 51.282 C 209.202 51.323,209.465 51.323,209.625 51.282 C 209.785 51.240,209.654 51.205,209.333 51.205 C 209.012 51.205,208.881 51.240,209.042 51.282 M99.740 89.708 L 99.250 90.250 99.792 89.760 C 100.090 89.491,100.333 89.248,100.333 89.219 C 100.333 89.090,100.196 89.203,99.740 89.708 M97.661 91.625 L 96.750 92.583 97.708 91.672 C 98.599 90.826,98.743 90.667,98.619 90.667 C 98.593 90.667,98.162 91.098,97.661 91.625 M301.993 91.375 C 302.684 92.111,302.833 92.243,302.833 92.118 C 302.833 92.091,302.477 91.735,302.042 91.326 L 301.250 90.583 301.993 91.375 M91.494 97.792 L 90.583 98.750 91.542 97.839 C 92.432 96.993,92.576 96.833,92.453 96.833 C 92.427 96.833,91.995 97.265,91.494 97.792 M308.500 97.917 C 308.998 98.421,309.443 98.833,309.489 98.833 C 309.534 98.833,309.165 98.421,308.667 97.917 C 308.169 97.412,307.724 97.000,307.678 97.000 C 307.632 97.000,308.002 97.412,308.500 97.917 M89.573 99.875 L 89.083 100.417 89.625 99.927 C 89.923 99.658,90.167 99.414,90.167 99.385 C 90.167 99.257,90.029 99.370,89.573 99.875 M171.167 123.367 C 171.121 134.523,171.140 143.593,171.209 143.524 C 171.278 143.455,171.316 134.328,171.292 123.241 L 171.250 103.083 171.167 123.367 M266.833 124.219 C 266.833 124.248,267.077 124.491,267.375 124.760 L 267.917 125.250 267.427 124.708 C 266.971 124.203,266.833 124.090,266.833 124.219 M130.411 126.708 L 129.417 127.750 130.458 126.755 C 131.031 126.208,131.500 125.739,131.500 125.714 C 131.500 125.590,131.336 125.741,130.411 126.708 M269.160 126.375 C 269.850 127.111,270.000 127.243,270.000 127.118 C 270.000 127.091,269.644 126.735,269.208 126.326 L 268.417 125.583 269.160 126.375 M126.578 130.542 L 125.583 131.583 126.625 130.589 C 127.198 130.041,127.667 129.573,127.667 129.547 C 127.667 129.424,127.502 129.574,126.578 130.542 M273.500 130.750 C 273.998 131.254,274.443 131.667,274.489 131.667 C 274.534 131.667,274.165 131.254,273.667 130.750 C 273.169 130.246,272.724 129.833,272.678 129.833 C 272.632 129.833,273.002 130.246,273.500 130.750 M241.500 152.052 C 241.500 152.081,241.744 152.325,242.042 152.594 L 242.583 153.083 242.094 152.542 C 241.638 152.037,241.500 151.923,241.500 152.052 M157.324 153.125 L 156.750 153.750 157.375 153.176 C 157.957 152.641,158.077 152.500,157.949 152.500 C 157.922 152.500,157.640 152.781,157.324 153.125 M244.833 155.250 C 245.701 156.121,246.448 156.833,246.493 156.833 C 246.539 156.833,245.867 156.121,245.000 155.250 C 244.133 154.379,243.386 153.667,243.340 153.667 C 243.294 153.667,243.966 154.379,244.833 155.250 M155.075 155.208 L 154.417 155.917 155.125 155.258 C 155.784 154.645,155.910 154.500,155.784 154.500 C 155.757 154.500,155.438 154.819,155.075 155.208 M152.991 157.458 L 152.417 158.083 153.042 157.509 C 153.385 157.193,153.667 156.912,153.667 156.884 C 153.667 156.757,153.526 156.877,152.991 157.458 M247.000 157.552 C 247.000 157.581,247.244 157.825,247.542 158.094 L 248.083 158.583 247.594 158.042 C 247.138 157.537,247.000 157.423,247.000 157.552 M123.333 171.167 L 103.083 171.252 123.282 171.293 C 136.612 171.320,143.515 171.277,143.583 171.167 C 143.640 171.075,143.663 171.018,143.635 171.041 C 143.607 171.063,134.471 171.120,123.333 171.167 M266.542 171.292 C 272.110 171.316,281.223 171.316,286.792 171.292 C 292.360 171.267,287.804 171.247,276.667 171.247 C 265.529 171.247,260.973 171.267,266.542 171.292 M51.205 190.667 C 51.205 190.987,51.240 191.119,51.282 190.958 C 51.323 190.798,51.323 190.535,51.282 190.375 C 51.240 190.215,51.205 190.346,51.205 190.667 M348.705 190.667 C 348.705 190.987,348.740 191.119,348.782 190.958 C 348.823 190.798,348.823 190.535,348.782 190.375 C 348.740 190.215,348.705 190.346,348.705 190.667 M348.881 193.750 C 348.882 194.208,348.915 194.376,348.953 194.123 C 348.991 193.869,348.990 193.494,348.951 193.289 C 348.911 193.084,348.880 193.292,348.881 193.750 M51.052 194.083 C 51.053 194.633,51.084 194.838,51.121 194.539 C 51.158 194.239,51.157 193.789,51.119 193.539 C 51.081 193.288,51.051 193.533,51.052 194.083 M51.052 205.917 C 51.053 206.467,51.084 206.672,51.121 206.372 C 51.158 206.072,51.157 205.622,51.119 205.372 C 51.081 205.122,51.051 205.367,51.052 205.917 M348.881 206.250 C 348.882 206.708,348.915 206.876,348.953 206.623 C 348.991 206.369,348.990 205.994,348.951 205.789 C 348.911 205.584,348.880 205.792,348.881 206.250 M51.205 209.333 C 51.205 209.654,51.240 209.785,51.282 209.625 C 51.323 209.465,51.323 209.202,51.282 209.042 C 51.240 208.881,51.205 209.012,51.205 209.333 M348.705 209.333 C 348.705 209.654,348.740 209.785,348.782 209.625 C 348.823 209.465,348.823 209.202,348.782 209.042 C 348.740 208.881,348.705 209.012,348.705 209.333 M152.000 241.552 C 152.000 241.581,152.244 241.825,152.542 242.094 L 153.083 242.583 152.594 242.042 C 152.138 241.537,152.000 241.423,152.000 241.552 M246.167 243.417 C 245.762 243.829,245.468 244.167,245.514 244.167 C 245.560 244.167,245.928 243.829,246.333 243.417 C 246.738 243.004,247.032 242.667,246.986 242.667 C 246.940 242.667,246.572 243.004,246.167 243.417 M155.167 244.917 C 156.034 245.787,156.781 246.500,156.827 246.500 C 156.873 246.500,156.201 245.787,155.333 244.917 C 154.466 244.046,153.719 243.333,153.673 243.333 C 153.627 243.333,154.299 244.046,155.167 244.917 M243.333 246.250 C 242.928 246.662,242.635 247.000,242.681 247.000 C 242.726 247.000,243.095 246.662,243.500 246.250 C 243.905 245.838,244.199 245.500,244.153 245.500 C 244.107 245.500,243.738 245.838,243.333 246.250 M157.500 247.052 C 157.500 247.081,157.744 247.325,158.042 247.594 L 158.583 248.083 158.094 247.542 C 157.638 247.037,157.500 246.923,157.500 247.052 M228.611 256.611 C 228.457 256.765,228.471 296.795,228.625 296.891 C 228.694 296.933,228.750 287.863,228.750 276.734 C 228.750 265.605,228.744 256.500,228.736 256.500 C 228.728 256.500,228.672 256.550,228.611 256.611 M124.167 266.885 C 124.167 266.914,124.410 267.158,124.708 267.427 L 125.250 267.917 124.760 267.375 C 124.304 266.870,124.167 266.757,124.167 266.885 M273.667 269.083 C 273.262 269.496,272.968 269.833,273.014 269.833 C 273.060 269.833,273.428 269.496,273.833 269.083 C 274.238 268.671,274.532 268.333,274.486 268.333 C 274.440 268.333,274.072 268.671,273.667 269.083 M126.326 269.208 C 126.735 269.644,127.091 270.000,127.118 270.000 C 127.243 270.000,127.111 269.850,126.375 269.160 L 125.583 268.417 126.326 269.208 M130.667 273.583 C 131.165 274.087,131.609 274.500,131.655 274.500 C 131.701 274.500,131.331 274.087,130.833 273.583 C 130.335 273.079,129.891 272.667,129.845 272.667 C 129.799 272.667,130.169 273.079,130.667 273.583 M269.000 273.750 C 268.595 274.162,268.301 274.500,268.347 274.500 C 268.393 274.500,268.762 274.162,269.167 273.750 C 269.572 273.337,269.865 273.000,269.819 273.000 C 269.774 273.000,269.405 273.337,269.000 273.750 M310.406 300.042 L 309.917 300.583 310.458 300.094 C 310.963 299.638,311.077 299.500,310.948 299.500 C 310.919 299.500,310.675 299.744,310.406 300.042 M308.494 302.125 L 307.583 303.083 308.542 302.172 C 309.069 301.671,309.500 301.240,309.500 301.214 C 309.500 301.090,309.341 301.235,308.494 302.125 M91.326 302.042 C 91.735 302.477,92.091 302.833,92.118 302.833 C 92.243 302.833,92.111 302.684,91.375 301.993 L 90.583 301.250 91.326 302.042 M97.833 308.583 C 98.331 309.087,98.776 309.500,98.822 309.500 C 98.868 309.500,98.498 309.087,98.000 308.583 C 97.502 308.079,97.057 307.667,97.011 307.667 C 96.966 307.667,97.335 308.079,97.833 308.583 M301.994 308.625 L 301.083 309.583 302.042 308.672 C 302.569 308.171,303.000 307.740,303.000 307.714 C 303.000 307.590,302.841 307.735,301.994 308.625 M299.906 310.542 L 299.417 311.083 299.958 310.594 C 300.463 310.138,300.577 310.000,300.448 310.000 C 300.419 310.000,300.175 310.244,299.906 310.542 M190.375 348.782 C 190.535 348.823,190.798 348.823,190.958 348.782 C 191.119 348.740,190.987 348.705,190.667 348.705 C 190.346 348.705,190.215 348.740,190.375 348.782 M209.042 348.782 C 209.202 348.823,209.465 348.823,209.625 348.782 C 209.785 348.740,209.654 348.705,209.333 348.705 C 209.012 348.705,208.881 348.740,209.042 348.782 M193.377 348.953 C 193.631 348.991,194.006 348.990,194.211 348.951 C 194.416 348.911,194.208 348.880,193.750 348.881 C 193.292 348.882,193.124 348.915,193.377 348.953 M205.877 348.953 C 206.131 348.991,206.506 348.990,206.711 348.951 C 206.916 348.911,206.708 348.880,206.250 348.881 C 205.792 348.882,205.624 348.915,205.877 348.953 " stroke="none" fill="#14649c" fill-rule="evenodd"></path><path id="path3" d="M198.708 50.957 C 199.419 50.988,200.581 50.988,201.292 50.957 C 202.002 50.926,201.421 50.900,200.000 50.900 C 198.579 50.900,197.998 50.926,198.708 50.957 M94.500 94.583 C 93.817 95.271,93.296 95.833,93.342 95.833 C 93.388 95.833,93.984 95.271,94.667 94.583 C 95.350 93.896,95.871 93.333,95.825 93.333 C 95.779 93.333,95.183 93.896,94.500 94.583 M304.167 93.379 C 304.167 93.404,304.748 93.986,305.458 94.671 L 306.750 95.917 305.504 94.625 C 304.347 93.425,304.167 93.257,304.167 93.379 M271.417 128.667 C 272.053 129.308,272.612 129.833,272.658 129.833 C 272.704 129.833,272.220 129.308,271.583 128.667 C 270.947 128.025,270.388 127.500,270.342 127.500 C 270.296 127.500,270.780 128.025,271.417 128.667 M128.494 128.625 L 127.583 129.583 128.542 128.672 C 129.432 127.826,129.576 127.667,129.453 127.667 C 129.427 127.667,128.995 128.098,128.494 128.625 M349.068 200.000 C 349.068 201.512,349.093 202.131,349.124 201.375 C 349.155 200.619,349.155 199.381,349.124 198.625 C 349.093 197.869,349.068 198.487,349.068 200.000 M50.900 200.000 C 50.900 201.421,50.926 202.002,50.957 201.292 C 50.988 200.581,50.988 199.419,50.957 198.708 C 50.926 197.998,50.900 198.579,50.900 200.000 M271.330 271.458 L 269.750 273.083 271.375 271.503 C 272.884 270.036,273.076 269.833,272.955 269.833 C 272.930 269.833,272.199 270.565,271.330 271.458 M128.583 271.500 C 129.220 272.142,129.779 272.667,129.824 272.667 C 129.870 272.667,129.387 272.142,128.750 271.500 C 128.113 270.858,127.555 270.333,127.509 270.333 C 127.463 270.333,127.947 270.858,128.583 271.500 M93.333 304.213 C 93.333 304.238,93.915 304.819,94.625 305.504 L 95.917 306.750 94.671 305.458 C 93.514 304.259,93.333 304.091,93.333 304.213 M305.333 305.417 C 304.650 306.104,304.129 306.667,304.175 306.667 C 304.221 306.667,304.817 306.104,305.500 305.417 C 306.183 304.729,306.704 304.167,306.658 304.167 C 306.612 304.167,306.016 304.729,305.333 305.417 M198.625 349.124 C 199.381 349.155,200.619 349.155,201.375 349.124 C 202.131 349.093,201.512 349.068,200.000 349.068 C 198.487 349.068,197.869 349.093,198.625 349.124 " stroke="none" fill="#1c517e" fill-rule="evenodd"></path><path id="path4" d="M196.128 50.954 C 196.428 50.991,196.878 50.990,197.128 50.952 C 197.378 50.914,197.133 50.884,196.583 50.885 C 196.033 50.886,195.828 50.917,196.128 50.954 M202.961 50.954 C 203.261 50.991,203.711 50.990,203.961 50.952 C 204.212 50.914,203.967 50.884,203.417 50.885 C 202.867 50.886,202.662 50.917,202.961 50.954 M299.833 89.219 C 299.833 89.248,300.077 89.491,300.375 89.760 L 300.917 90.250 300.427 89.708 C 299.971 89.203,299.833 89.090,299.833 89.219 M96.829 92.292 L 95.750 93.417 96.875 92.338 C 97.494 91.745,98.000 91.239,98.000 91.213 C 98.000 91.090,97.830 91.247,96.829 92.292 M303.000 92.250 C 303.591 92.846,304.111 93.333,304.157 93.333 C 304.203 93.333,303.757 92.846,303.167 92.250 C 302.576 91.654,302.055 91.167,302.010 91.167 C 301.964 91.167,302.409 91.654,303.000 92.250 M92.162 96.958 L 91.083 98.083 92.208 97.005 C 92.827 96.412,93.333 95.905,93.333 95.880 C 93.333 95.757,93.164 95.913,92.162 96.958 M307.667 96.917 C 308.257 97.513,308.778 98.000,308.824 98.000 C 308.870 98.000,308.424 97.513,307.833 96.917 C 307.243 96.321,306.722 95.833,306.676 95.833 C 306.630 95.833,307.076 96.321,307.667 96.917 M228.708 123.292 L 228.749 143.417 228.792 123.426 C 228.826 107.688,228.879 103.407,229.042 103.304 C 229.190 103.210,229.166 103.171,228.958 103.169 C 228.682 103.167,228.669 104.220,228.708 123.292 M131.000 126.250 C 130.595 126.662,130.301 127.000,130.347 127.000 C 130.393 127.000,130.762 126.662,131.167 126.250 C 131.572 125.837,131.865 125.500,131.819 125.500 C 131.774 125.500,131.405 125.837,131.000 126.250 M268.667 126.083 C 268.978 126.404,269.270 126.667,269.315 126.667 C 269.361 126.667,269.144 126.404,268.833 126.083 C 268.522 125.763,268.230 125.500,268.185 125.500 C 268.139 125.500,268.356 125.763,268.667 126.083 M126.167 131.083 C 125.762 131.496,125.468 131.833,125.514 131.833 C 125.560 131.833,125.928 131.496,126.333 131.083 C 126.738 130.671,127.032 130.333,126.986 130.333 C 126.940 130.333,126.572 130.671,126.167 131.083 M273.750 131.167 C 274.108 131.533,274.438 131.833,274.484 131.833 C 274.530 131.833,274.275 131.533,273.917 131.167 C 273.559 130.800,273.228 130.500,273.182 130.500 C 273.137 130.500,273.392 130.800,273.750 131.167 M244.833 155.083 C 245.144 155.404,245.436 155.667,245.482 155.667 C 245.528 155.667,245.311 155.404,245.000 155.083 C 244.689 154.762,244.397 154.500,244.351 154.500 C 244.305 154.500,244.522 154.762,244.833 155.083 M50.885 196.583 C 50.886 197.133,50.917 197.338,50.954 197.039 C 50.991 196.739,50.990 196.289,50.952 196.039 C 50.914 195.788,50.884 196.033,50.885 196.583 M349.050 196.500 C 349.050 197.004,349.081 197.210,349.119 196.958 C 349.158 196.706,349.158 196.294,349.119 196.042 C 349.081 195.790,349.050 195.996,349.050 196.500 M50.885 203.417 C 50.886 203.967,50.917 204.172,50.954 203.872 C 50.991 203.572,50.990 203.122,50.952 202.872 C 50.914 202.622,50.884 202.867,50.885 203.417 M349.050 203.500 C 349.050 204.004,349.081 204.210,349.119 203.958 C 349.158 203.706,349.158 203.294,349.119 203.042 C 349.081 202.790,349.050 202.996,349.050 203.500 M256.609 228.792 C 256.567 228.860,265.539 228.897,276.547 228.874 C 292.483 228.839,296.589 228.873,296.695 229.040 C 296.791 229.191,296.829 229.168,296.831 228.958 C 296.833 228.649,256.800 228.484,256.609 228.792 M244.831 244.958 L 242.917 246.917 244.875 245.003 C 245.952 243.950,246.833 243.069,246.833 243.044 C 246.833 242.924,246.608 243.139,244.831 244.958 M155.000 244.917 C 155.311 245.237,155.603 245.500,155.649 245.500 C 155.695 245.500,155.478 245.237,155.167 244.917 C 154.856 244.596,154.564 244.333,154.518 244.333 C 154.472 244.333,154.689 244.596,155.000 244.917 M171.000 276.617 C 170.954 287.727,170.973 296.760,171.042 296.691 C 171.111 296.622,171.149 287.532,171.126 276.491 L 171.083 256.417 171.000 276.617 M126.000 268.750 C 126.311 269.071,126.603 269.333,126.649 269.333 C 126.695 269.333,126.478 269.071,126.167 268.750 C 125.856 268.429,125.564 268.167,125.518 268.167 C 125.472 268.167,125.689 268.429,126.000 268.750 M273.824 268.792 L 273.250 269.417 273.875 268.842 C 274.219 268.526,274.500 268.245,274.500 268.217 C 274.500 268.090,274.359 268.210,273.824 268.792 M131.083 273.833 C 131.441 274.200,131.772 274.500,131.818 274.500 C 131.863 274.500,131.608 274.200,131.250 273.833 C 130.892 273.467,130.562 273.167,130.516 273.167 C 130.470 273.167,130.725 273.467,131.083 273.833 M268.658 273.958 L 268.083 274.583 268.708 274.009 C 269.052 273.693,269.333 273.412,269.333 273.384 C 269.333 273.257,269.192 273.377,268.658 273.958 M89.167 299.885 C 89.167 299.914,89.410 300.158,89.708 300.427 L 90.250 300.917 89.760 300.375 C 89.304 299.870,89.167 299.757,89.167 299.885 M92.167 303.083 C 92.757 303.679,93.278 304.167,93.324 304.167 C 93.370 304.167,92.924 303.679,92.333 303.083 C 91.743 302.487,91.222 302.000,91.176 302.000 C 91.130 302.000,91.576 302.487,92.167 303.083 M307.828 302.958 L 306.917 303.917 307.875 303.006 C 308.765 302.159,308.910 302.000,308.786 302.000 C 308.760 302.000,308.329 302.431,307.828 302.958 M96.833 307.750 C 97.424 308.346,97.945 308.833,97.990 308.833 C 98.036 308.833,97.591 308.346,97.000 307.750 C 96.409 307.154,95.889 306.667,95.843 306.667 C 95.797 306.667,96.243 307.154,96.833 307.750 M302.828 307.958 L 301.917 308.917 302.875 308.006 C 303.402 307.505,303.833 307.073,303.833 307.047 C 303.833 306.924,303.674 307.068,302.828 307.958 M196.042 349.119 C 196.294 349.158,196.706 349.158,196.958 349.119 C 197.210 349.081,197.004 349.050,196.500 349.050 C 195.996 349.050,195.790 349.081,196.042 349.119 M203.042 349.119 C 203.294 349.158,203.706 349.158,203.958 349.119 C 204.210 349.081,204.004 349.050,203.500 349.050 C 202.996 349.050,202.790 349.081,203.042 349.119 " stroke="none" fill="#244860" fill-rule="evenodd"></path></g></svg>