<svg id="svg" version="1.1" xmlns="http://www.w3.org/2000/svg" xmlns:xlink="http://www.w3.org/1999/xlink" width="400" height="400" viewBox="0, 0, 400,400"><g id="svgg"><path id="path0" d="M193.333 30.265 C 192.829 30.298,190.992 30.406,189.250 30.505 C 119.759 34.460,58.973 82.084,37.922 149.067 C 25.669 188.054,28.020 231.196,44.417 268.250 C 84.699 359.282,193.209 396.464,280.917 349.288 C 315.368 330.758,343.312 299.322,357.731 262.877 C 361.963 252.180,364.477 243.577,366.737 232.057 C 374.082 194.620,368.119 154.525,350.169 120.667 C 327.856 78.577,288.809 47.580,243.083 35.658 C 232.926 33.010,223.088 31.392,212.167 30.573 C 209.003 30.336,195.605 30.117,193.333 30.265 M206.167 78.171 C 221.143 78.998,235.388 82.344,248.583 88.132 C 252.704 89.940,253.606 90.372,256.701 92.017 C 304.537 117.449,329.780 170.066,319.650 223.229 C 315.665 244.144,306.189 263.532,291.874 280.059 C 265.879 310.070,226.080 325.592,186.500 321.155 C 118.078 313.485,69.474 250.716,79.262 182.667 C 88.223 120.366,143.662 74.716,206.167 78.171 M188.000 114.833 L 188.000 145.167 200.000 145.167 L 212.000 145.167 212.000 114.833 L 212.000 84.500 200.000 84.500 L 188.000 84.500 188.000 114.833 M196.333 154.836 C 161.091 158.125,142.803 197.539,163.129 226.398 C 183.233 254.945,228.088 250.182,241.648 218.060 C 254.985 186.466,230.060 151.689,196.333 154.836 M84.500 199.917 L 84.500 211.833 114.833 211.833 L 145.167 211.833 145.167 199.917 L 145.167 188.000 114.833 188.000 L 84.500 188.000 84.500 199.917 M254.833 200.000 L 254.833 212.000 285.083 212.000 L 315.333 212.000 315.333 200.000 L 315.333 188.000 285.083 188.000 L 254.833 188.000 254.833 200.000 M188.000 285.083 L 188.000 315.333 199.917 315.333 L 211.833 315.333 211.833 285.083 L 211.833 254.833 199.917 254.833 L 188.000 254.833 188.000 285.083 " stroke="none" fill="#0493fb" fill-rule="evenodd"></path><path id="path1" d="M0.000 200.000 L 0.000 400.000 200.000 400.000 L 400.000 400.000 400.000 200.000 L 400.000 0.000 200.000 0.000 L 0.000 0.000 0.000 200.000 M208.333 30.173 C 294.391 34.694,362.765 101.442,369.492 187.500 C 370.654 202.367,369.606 218.620,366.479 234.250 C 363.329 249.994,356.284 269.014,348.669 282.333 C 348.014 283.479,347.135 285.017,346.716 285.750 C 333.018 309.702,309.702 333.018,285.750 346.716 C 285.017 347.135,283.479 348.015,282.333 348.670 C 272.521 354.285,258.027 360.260,246.378 363.491 C 237.173 366.045,229.950 367.499,220.750 368.652 C 149.533 377.571,79.976 340.230,47.856 275.833 C 22.101 224.197,24.202 164.269,53.547 113.583 C 62.572 97.995,77.246 80.776,91.333 69.246 C 92.112 68.608,93.200 67.710,93.751 67.251 C 98.085 63.636,108.049 56.751,113.583 53.547 C 138.696 39.007,163.563 31.654,192.833 30.110 C 195.289 29.981,205.457 30.022,208.333 30.173 M195.250 78.266 C 187.003 78.772,182.523 79.260,177.743 80.172 C 113.137 92.500,70.161 152.603,79.429 217.667 C 87.256 272.619,132.690 315.890,188.117 321.182 C 255.225 327.588,314.449 278.878,321.203 211.722 C 321.742 206.366,321.740 193.685,321.201 188.202 C 315.372 128.973,268.347 83.095,208.750 78.496 C 206.489 78.321,196.984 78.159,195.250 78.266 M212.000 114.917 L 212.000 145.333 200.000 145.333 L 188.000 145.333 188.000 114.917 L 188.000 84.500 200.000 84.500 L 212.000 84.500 212.000 114.917 M203.342 154.678 C 239.425 157.547,258.042 198.959,236.154 227.667 C 213.324 257.610,165.668 248.039,156.077 211.583 C 148.165 181.512,172.490 152.226,203.342 154.678 M145.250 199.917 L 145.250 211.917 114.875 211.959 L 84.500 212.001 84.500 199.917 L 84.500 187.832 114.875 187.875 L 145.250 187.917 145.250 199.917 M315.500 200.000 L 315.500 212.000 285.083 212.000 L 254.667 212.000 254.667 200.000 L 254.667 188.000 285.083 188.000 L 315.500 188.000 315.500 200.000 M212.000 285.083 L 212.000 315.500 199.917 315.500 L 187.833 315.500 187.833 285.083 L 187.833 254.667 199.917 254.667 L 212.000 254.667 212.000 285.083 " stroke="none" fill="#2c2c34" fill-rule="evenodd"></path><path id="path2" d="M198.633 30.124 C 199.394 30.155,200.594 30.155,201.300 30.124 C 202.006 30.093,201.383 30.067,199.917 30.067 C 198.450 30.068,197.872 30.093,198.633 30.124 M192.296 30.289 C 192.688 30.324,193.288 30.324,193.629 30.288 C 193.971 30.252,193.650 30.223,192.917 30.224 C 192.183 30.224,191.904 30.254,192.296 30.289 M206.375 30.288 C 206.719 30.324,207.281 30.324,207.625 30.288 C 207.969 30.252,207.688 30.223,207.000 30.223 C 206.313 30.223,206.031 30.252,206.375 30.288 M189.208 30.453 C 189.460 30.491,189.873 30.491,190.125 30.453 C 190.377 30.415,190.171 30.383,189.667 30.383 C 189.162 30.383,188.956 30.415,189.208 30.453 M209.877 30.453 C 210.131 30.491,210.506 30.490,210.711 30.451 C 210.916 30.411,210.708 30.380,210.250 30.381 C 209.792 30.382,209.624 30.415,209.877 30.453 M186.794 30.618 C 187.001 30.658,187.301 30.656,187.460 30.615 C 187.620 30.573,187.450 30.540,187.083 30.542 C 186.717 30.544,186.586 30.578,186.794 30.618 M212.458 30.618 C 212.665 30.657,213.002 30.657,213.208 30.618 C 213.415 30.578,213.246 30.545,212.833 30.545 C 212.421 30.545,212.252 30.578,212.458 30.618 M184.708 30.782 C 184.869 30.823,185.131 30.823,185.292 30.782 C 185.452 30.740,185.321 30.705,185.000 30.705 C 184.679 30.705,184.548 30.740,184.708 30.782 M214.708 30.782 C 214.869 30.823,215.131 30.823,215.292 30.782 C 215.452 30.740,215.321 30.705,215.000 30.705 C 214.679 30.705,214.548 30.740,214.708 30.782 M314.167 74.219 C 314.167 74.248,314.410 74.491,314.708 74.760 L 315.250 75.250 314.760 74.708 C 314.304 74.203,314.167 74.090,314.167 74.219 M317.583 77.500 C 318.220 78.142,318.779 78.667,318.824 78.667 C 318.870 78.667,318.387 78.142,317.750 77.500 C 317.113 76.858,316.555 76.333,316.509 76.333 C 316.463 76.333,316.947 76.858,317.583 77.500 M197.792 78.125 C 199.006 78.153,200.994 78.153,202.208 78.125 C 203.423 78.096,202.429 78.073,200.000 78.073 C 197.571 78.073,196.577 78.096,197.792 78.125 M192.625 78.284 C 192.831 78.324,193.169 78.324,193.375 78.284 C 193.581 78.245,193.412 78.212,193.000 78.212 C 192.588 78.212,192.419 78.245,192.625 78.284 M206.625 78.284 C 206.831 78.324,207.169 78.324,207.375 78.284 C 207.581 78.245,207.412 78.212,207.000 78.212 C 206.588 78.212,206.419 78.245,206.625 78.284 M190.208 78.448 C 190.369 78.490,190.631 78.490,190.792 78.448 C 190.952 78.406,190.821 78.372,190.500 78.372 C 190.179 78.372,190.048 78.406,190.208 78.448 M209.127 78.451 C 209.334 78.491,209.634 78.490,209.794 78.448 C 209.953 78.406,209.783 78.374,209.417 78.375 C 209.050 78.377,208.920 78.411,209.127 78.451 M79.745 79.875 L 78.750 80.917 79.792 79.922 C 80.759 78.998,80.910 78.833,80.786 78.833 C 80.761 78.833,80.292 79.302,79.745 79.875 M322.500 82.417 C 323.091 83.012,323.611 83.500,323.657 83.500 C 323.703 83.500,323.257 83.012,322.667 82.417 C 322.076 81.821,321.555 81.333,321.510 81.333 C 321.464 81.333,321.909 81.821,322.500 82.417 M326.167 86.385 C 326.167 86.414,326.410 86.658,326.708 86.927 L 327.250 87.417 326.760 86.875 C 326.304 86.370,326.167 86.257,326.167 86.385 M117.075 110.542 L 116.417 111.250 117.125 110.591 C 117.515 110.229,117.833 109.910,117.833 109.883 C 117.833 109.757,117.688 109.883,117.075 110.542 M283.993 111.708 C 284.684 112.444,284.833 112.577,284.833 112.451 C 284.833 112.425,284.477 112.068,284.042 111.660 L 283.250 110.917 283.993 111.708 M113.658 113.792 L 113.083 114.417 113.708 113.842 C 114.290 113.308,114.410 113.167,114.283 113.167 C 114.255 113.167,113.974 113.448,113.658 113.792 M287.583 115.333 C 288.128 115.883,288.610 116.333,288.656 116.333 C 288.702 116.333,288.294 115.883,287.750 115.333 C 287.206 114.783,286.723 114.333,286.677 114.333 C 286.631 114.333,287.039 114.783,287.583 115.333 M110.409 117.208 L 109.750 117.917 110.458 117.258 C 110.848 116.895,111.167 116.577,111.167 116.550 C 111.167 116.423,111.022 116.550,110.409 117.208 M290.000 117.885 C 290.000 117.914,290.244 118.158,290.542 118.427 L 291.083 118.917 290.594 118.375 C 290.138 117.870,290.000 117.757,290.000 117.885 M196.792 154.784 C 196.998 154.824,197.335 154.824,197.542 154.784 C 197.748 154.745,197.579 154.712,197.167 154.712 C 196.754 154.712,196.585 154.745,196.792 154.784 M202.625 154.784 C 202.831 154.824,203.169 154.824,203.375 154.784 C 203.581 154.745,203.412 154.712,203.000 154.712 C 202.588 154.712,202.419 154.745,202.625 154.784 M231.167 167.083 C 231.478 167.404,231.770 167.667,231.815 167.667 C 231.861 167.667,231.644 167.404,231.333 167.083 C 231.022 166.762,230.730 166.500,230.685 166.500 C 230.639 166.500,230.856 166.762,231.167 167.083 M232.500 168.385 C 232.500 168.414,232.744 168.658,233.042 168.927 L 233.583 169.417 233.094 168.875 C 232.638 168.370,232.500 168.257,232.500 168.385 M369.209 185.917 C 369.211 186.283,369.245 186.414,369.285 186.206 C 369.324 185.999,369.323 185.699,369.281 185.540 C 369.239 185.380,369.207 185.550,369.209 185.917 M30.542 187.083 C 30.544 187.450,30.578 187.580,30.618 187.373 C 30.658 187.166,30.656 186.866,30.615 186.706 C 30.573 186.547,30.540 186.717,30.542 187.083 M369.375 187.917 C 369.377 188.283,369.411 188.414,369.451 188.206 C 369.491 187.999,369.490 187.699,369.448 187.540 C 369.406 187.380,369.374 187.550,369.375 187.917 M254.746 200.000 C 254.746 206.646,254.766 209.365,254.792 206.042 C 254.817 202.719,254.817 197.281,254.792 193.958 C 254.766 190.635,254.746 193.354,254.746 200.000 M315.412 200.000 C 315.412 206.646,315.433 209.365,315.458 206.042 C 315.484 202.719,315.484 197.281,315.458 193.958 C 315.433 190.635,315.412 193.354,315.412 200.000 M30.383 189.667 C 30.383 190.171,30.415 190.377,30.453 190.125 C 30.491 189.873,30.491 189.460,30.453 189.208 C 30.415 188.956,30.383 189.162,30.383 189.667 M78.372 190.500 C 78.372 190.821,78.406 190.952,78.448 190.792 C 78.490 190.631,78.490 190.369,78.448 190.208 C 78.406 190.048,78.372 190.179,78.372 190.500 M369.550 190.833 C 369.550 191.338,369.581 191.544,369.619 191.292 C 369.658 191.040,369.658 190.627,369.619 190.375 C 369.581 190.123,369.550 190.329,369.550 190.833 M321.539 191.500 C 321.539 191.821,321.573 191.952,321.615 191.792 C 321.657 191.631,321.657 191.369,321.615 191.208 C 321.573 191.048,321.539 191.179,321.539 191.500 M30.223 192.833 C 30.223 193.521,30.252 193.802,30.288 193.458 C 30.324 193.115,30.324 192.552,30.288 192.208 C 30.252 191.865,30.223 192.146,30.223 192.833 M78.212 193.000 C 78.212 193.412,78.245 193.581,78.284 193.375 C 78.324 193.169,78.324 192.831,78.284 192.625 C 78.245 192.419,78.212 192.588,78.212 193.000 M321.718 194.583 C 321.719 195.133,321.750 195.338,321.787 195.039 C 321.825 194.739,321.824 194.289,321.786 194.039 C 321.748 193.788,321.717 194.033,321.718 194.583 M369.730 195.500 C 369.730 196.554,369.757 196.985,369.790 196.458 C 369.823 195.931,369.823 195.069,369.790 194.542 C 369.757 194.015,369.730 194.446,369.730 195.500 M78.073 199.917 C 78.073 202.392,78.096 203.427,78.124 202.218 C 78.153 201.009,78.153 198.984,78.125 197.718 C 78.096 196.452,78.073 197.442,78.073 199.917 M245.205 196.000 C 245.205 196.321,245.240 196.452,245.282 196.292 C 245.323 196.131,245.323 195.869,245.282 195.708 C 245.240 195.548,245.205 195.679,245.205 196.000 M154.712 197.167 C 154.712 197.579,154.745 197.748,154.784 197.542 C 154.824 197.335,154.824 196.998,154.784 196.792 C 154.745 196.585,154.712 196.754,154.712 197.167 M30.067 199.917 C 30.068 201.383,30.093 201.961,30.124 201.200 C 30.155 200.440,30.155 199.240,30.124 198.534 C 30.093 197.828,30.067 198.450,30.067 199.917 M245.400 200.000 C 245.400 201.329,245.425 201.873,245.457 201.208 C 245.489 200.544,245.489 199.456,245.457 198.792 C 245.425 198.127,245.400 198.671,245.400 200.000 M154.712 203.000 C 154.712 203.412,154.745 203.581,154.784 203.375 C 154.824 203.169,154.824 202.831,154.784 202.625 C 154.745 202.419,154.712 202.588,154.712 203.000 M369.730 204.500 C 369.730 205.554,369.757 205.985,369.790 205.458 C 369.823 204.931,369.823 204.069,369.790 203.542 C 369.757 203.015,369.730 203.446,369.730 204.500 M245.205 204.000 C 245.205 204.321,245.240 204.452,245.282 204.292 C 245.323 204.131,245.323 203.869,245.282 203.708 C 245.240 203.548,245.205 203.679,245.205 204.000 M321.718 205.417 C 321.719 205.967,321.750 206.172,321.787 205.872 C 321.825 205.572,321.824 205.122,321.786 204.872 C 321.748 204.622,321.717 204.867,321.718 205.417 M30.223 207.000 C 30.223 207.688,30.252 207.969,30.288 207.625 C 30.324 207.281,30.324 206.719,30.288 206.375 C 30.252 206.031,30.223 206.313,30.223 207.000 M78.212 207.000 C 78.212 207.412,78.245 207.581,78.284 207.375 C 78.324 207.169,78.324 206.831,78.284 206.625 C 78.245 206.419,78.212 206.588,78.212 207.000 M321.539 208.500 C 321.539 208.821,321.573 208.952,321.615 208.792 C 321.657 208.631,321.657 208.369,321.615 208.208 C 321.573 208.048,321.539 208.179,321.539 208.500 M369.550 209.000 C 369.550 209.504,369.581 209.710,369.619 209.458 C 369.658 209.206,369.658 208.794,369.619 208.542 C 369.581 208.290,369.550 208.496,369.550 209.000 M78.375 209.417 C 78.377 209.783,78.411 209.914,78.451 209.706 C 78.491 209.499,78.490 209.199,78.448 209.040 C 78.406 208.880,78.374 209.050,78.375 209.417 M30.381 210.250 C 30.382 210.708,30.415 210.876,30.453 210.623 C 30.491 210.369,30.490 209.994,30.451 209.789 C 30.411 209.584,30.380 209.792,30.381 210.250 M369.375 211.917 C 369.377 212.283,369.411 212.414,369.451 212.206 C 369.491 211.999,369.490 211.699,369.448 211.540 C 369.406 211.380,369.374 211.550,369.375 211.917 M99.638 211.958 C 108.010 211.982,121.660 211.982,129.972 211.958 C 138.283 211.934,131.433 211.915,114.750 211.915 C 98.067 211.915,91.266 211.934,99.638 211.958 M30.545 212.833 C 30.545 213.246,30.578 213.415,30.618 213.208 C 30.657 213.002,30.657 212.665,30.618 212.458 C 30.578 212.252,30.545 212.421,30.545 212.833 M369.205 214.000 C 369.205 214.321,369.240 214.452,369.282 214.292 C 369.323 214.131,369.323 213.869,369.282 213.708 C 369.240 213.548,369.205 213.679,369.205 214.000 M30.705 215.000 C 30.705 215.321,30.740 215.452,30.782 215.292 C 30.823 215.131,30.823 214.869,30.782 214.708 C 30.740 214.548,30.705 214.679,30.705 215.000 M167.000 231.250 C 167.311 231.571,167.603 231.833,167.649 231.833 C 167.695 231.833,167.478 231.571,167.167 231.250 C 166.856 230.929,166.564 230.667,166.518 230.667 C 166.472 230.667,166.689 230.929,167.000 231.250 M168.333 232.552 C 168.333 232.581,168.577 232.825,168.875 233.094 L 169.417 233.583 168.927 233.042 C 168.471 232.537,168.333 232.423,168.333 232.552 M195.708 245.282 C 195.869 245.323,196.131 245.323,196.292 245.282 C 196.452 245.240,196.321 245.205,196.000 245.205 C 195.679 245.205,195.548 245.240,195.708 245.282 M203.708 245.282 C 203.869 245.323,204.131 245.323,204.292 245.282 C 204.452 245.240,204.321 245.205,204.000 245.205 C 203.679 245.205,203.548 245.240,203.708 245.282 M198.792 245.457 C 199.456 245.489,200.544 245.489,201.208 245.457 C 201.873 245.425,201.329 245.400,200.000 245.400 C 198.671 245.400,198.127 245.425,198.792 245.457 M199.958 254.791 L 211.833 254.836 211.833 285.083 L 211.833 315.331 199.958 315.376 L 188.083 315.420 200.000 315.418 L 211.917 315.417 211.917 285.083 L 211.917 254.750 200.000 254.748 L 188.083 254.747 199.958 254.791 M289.658 282.458 L 289.083 283.083 289.708 282.509 C 290.052 282.193,290.333 281.912,290.333 281.884 C 290.333 281.757,290.192 281.877,289.658 282.458 M111.660 284.042 C 112.068 284.477,112.425 284.833,112.451 284.833 C 112.577 284.833,112.444 284.684,111.708 283.993 L 110.917 283.250 111.660 284.042 M286.078 286.208 L 285.083 287.250 286.125 286.255 C 287.093 285.331,287.243 285.167,287.120 285.167 C 287.094 285.167,286.625 285.635,286.078 286.208 M115.250 287.667 C 115.794 288.217,116.277 288.667,116.323 288.667 C 116.369 288.667,115.961 288.217,115.417 287.667 C 114.872 287.117,114.390 286.667,114.344 286.667 C 114.298 286.667,114.706 287.117,115.250 287.667 M282.324 289.792 L 281.750 290.417 282.375 289.842 C 282.719 289.526,283.000 289.245,283.000 289.217 C 283.000 289.090,282.859 289.210,282.324 289.792 M325.906 313.875 L 325.417 314.417 325.958 313.927 C 326.463 313.471,326.577 313.333,326.448 313.333 C 326.419 313.333,326.175 313.577,325.906 313.875 M74.167 314.219 C 74.167 314.248,74.410 314.491,74.708 314.760 L 75.250 315.250 74.760 314.708 C 74.304 314.203,74.167 314.090,74.167 314.219 M77.417 317.667 C 78.053 318.308,78.612 318.833,78.658 318.833 C 78.704 318.833,78.220 318.308,77.583 317.667 C 76.947 317.025,76.388 316.500,76.342 316.500 C 76.296 316.500,76.780 317.025,77.417 317.667 M319.997 320.125 L 318.083 322.083 320.042 320.169 C 321.119 319.117,322.000 318.235,322.000 318.211 C 322.000 318.091,321.775 318.306,319.997 320.125 M82.250 322.500 C 82.794 323.050,83.277 323.500,83.323 323.500 C 83.369 323.500,82.961 323.050,82.417 322.500 C 81.872 321.950,81.390 321.500,81.344 321.500 C 81.298 321.500,81.706 321.950,82.250 322.500 M191.208 321.615 C 191.369 321.657,191.631 321.657,191.792 321.615 C 191.952 321.573,191.821 321.539,191.500 321.539 C 191.179 321.539,191.048 321.573,191.208 321.615 M208.208 321.615 C 208.369 321.657,208.631 321.657,208.792 321.615 C 208.952 321.573,208.821 321.539,208.500 321.539 C 208.179 321.539,208.048 321.573,208.208 321.615 M194.128 321.787 C 194.428 321.825,194.878 321.824,195.128 321.786 C 195.378 321.748,195.133 321.717,194.583 321.718 C 194.033 321.719,193.828 321.750,194.128 321.787 M204.961 321.787 C 205.261 321.825,205.711 321.824,205.961 321.786 C 206.212 321.748,205.967 321.717,205.417 321.718 C 204.867 321.719,204.662 321.750,204.961 321.787 M313.740 326.042 L 313.250 326.583 313.792 326.094 C 314.297 325.638,314.410 325.500,314.281 325.500 C 314.252 325.500,314.009 325.744,313.740 326.042 M86.333 326.219 C 86.333 326.248,86.577 326.491,86.875 326.760 L 87.417 327.250 86.927 326.708 C 86.471 326.203,86.333 326.090,86.333 326.219 M185.542 369.282 C 185.702 369.323,185.965 369.323,186.125 369.282 C 186.285 369.240,186.154 369.205,185.833 369.205 C 185.512 369.205,185.381 369.240,185.542 369.282 M213.708 369.282 C 213.869 369.323,214.131 369.323,214.292 369.282 C 214.452 369.240,214.321 369.205,214.000 369.205 C 213.679 369.205,213.548 369.240,213.708 369.282 M187.627 369.451 C 187.834 369.491,188.134 369.490,188.294 369.448 C 188.453 369.406,188.283 369.374,187.917 369.375 C 187.550 369.377,187.420 369.411,187.627 369.451 M211.627 369.451 C 211.834 369.491,212.134 369.490,212.294 369.448 C 212.453 369.406,212.283 369.374,211.917 369.375 C 211.550 369.377,211.420 369.411,211.627 369.451 M190.375 369.619 C 190.627 369.658,191.040 369.658,191.292 369.619 C 191.544 369.581,191.338 369.550,190.833 369.550 C 190.329 369.550,190.123 369.581,190.375 369.619 M208.542 369.619 C 208.794 369.658,209.206 369.658,209.458 369.619 C 209.710 369.581,209.504 369.550,209.000 369.550 C 208.496 369.550,208.290 369.581,208.542 369.619 M194.542 369.790 C 195.069 369.823,195.931 369.823,196.458 369.790 C 196.985 369.757,196.554 369.730,195.500 369.730 C 194.446 369.730,194.015 369.757,194.542 369.790 M203.542 369.790 C 204.069 369.823,204.931 369.823,205.458 369.790 C 205.985 369.757,205.554 369.730,204.500 369.730 C 203.446 369.730,203.015 369.757,203.542 369.790 " stroke="none" fill="#14649e" fill-rule="evenodd"></path><path id="path3" d="M196.460 30.118 C 196.668 30.158,196.968 30.156,197.127 30.115 C 197.286 30.073,197.117 30.040,196.750 30.042 C 196.383 30.044,196.253 30.078,196.460 30.118 M202.794 30.118 C 203.001 30.158,203.301 30.156,203.460 30.115 C 203.620 30.073,203.450 30.040,203.083 30.042 C 202.717 30.044,202.586 30.078,202.794 30.118 M81.409 78.208 L 80.750 78.917 81.458 78.258 C 81.848 77.895,82.167 77.577,82.167 77.550 C 82.167 77.423,82.022 77.550,81.409 78.208 M78.158 81.458 L 77.583 82.083 78.208 81.509 C 78.552 81.193,78.833 80.912,78.833 80.884 C 78.833 80.757,78.692 80.877,78.158 81.458 M286.000 113.750 C 286.311 114.071,286.603 114.333,286.649 114.333 C 286.695 114.333,286.478 114.071,286.167 113.750 C 285.856 113.429,285.564 113.167,285.518 113.167 C 285.472 113.167,285.689 113.429,286.000 113.750 M99.625 187.958 C 107.990 187.982,121.677 187.982,130.042 187.958 C 138.406 187.934,131.563 187.915,114.833 187.915 C 98.104 187.915,91.260 187.934,99.625 187.958 M30.042 196.750 C 30.044 197.117,30.078 197.247,30.118 197.040 C 30.158 196.832,30.156 196.532,30.115 196.373 C 30.073 196.214,30.040 196.383,30.042 196.750 M30.042 203.083 C 30.044 203.450,30.078 203.580,30.118 203.373 C 30.158 203.166,30.156 202.866,30.115 202.706 C 30.073 202.547,30.040 202.717,30.042 203.083 M187.915 285.083 C 187.915 301.767,187.934 308.567,187.958 300.195 C 187.982 291.823,187.982 278.173,187.958 269.862 C 187.934 261.550,187.915 268.400,187.915 285.083 M113.667 286.083 C 113.978 286.404,114.270 286.667,114.315 286.667 C 114.361 286.667,114.144 286.404,113.833 286.083 C 113.522 285.762,113.230 285.500,113.185 285.500 C 113.139 285.500,113.356 285.762,113.667 286.083 " stroke="none" fill="#1c5c8c" fill-rule="evenodd"></path><path id="path4" d="M194.296 30.122 C 194.688 30.157,195.288 30.157,195.629 30.121 C 195.971 30.085,195.650 30.057,194.917 30.057 C 194.183 30.058,193.904 30.087,194.296 30.122 M204.292 30.122 C 204.681 30.157,205.319 30.157,205.708 30.122 C 206.098 30.087,205.779 30.058,205.000 30.058 C 204.221 30.058,203.902 30.087,204.292 30.122 M190.460 30.285 C 190.668 30.324,190.968 30.323,191.127 30.281 C 191.286 30.239,191.117 30.207,190.750 30.209 C 190.383 30.211,190.253 30.245,190.460 30.285 M208.960 30.285 C 209.168 30.324,209.468 30.323,209.627 30.281 C 209.786 30.239,209.617 30.207,209.250 30.209 C 208.883 30.211,208.753 30.245,208.960 30.285 M211.542 30.448 C 211.702 30.490,211.965 30.490,212.125 30.448 C 212.285 30.406,212.154 30.372,211.833 30.372 C 211.512 30.372,211.381 30.406,211.542 30.448 M85.240 74.542 L 84.750 75.083 85.292 74.594 C 85.590 74.325,85.833 74.081,85.833 74.052 C 85.833 73.923,85.696 74.037,85.240 74.542 M315.417 75.333 C 315.775 75.700,316.105 76.000,316.151 76.000 C 316.197 76.000,315.941 75.700,315.583 75.333 C 315.225 74.967,314.895 74.667,314.849 74.667 C 314.803 74.667,315.059 74.967,315.417 75.333 M82.573 77.042 L 82.083 77.583 82.625 77.094 C 82.923 76.825,83.167 76.581,83.167 76.552 C 83.167 76.423,83.029 76.537,82.573 77.042 M320.167 79.917 C 321.493 81.246,322.617 82.333,322.662 82.333 C 322.708 82.333,321.660 81.246,320.333 79.917 C 319.007 78.587,317.883 77.500,317.838 77.500 C 317.792 77.500,318.840 78.587,320.167 79.917 M194.625 78.287 C 194.923 78.324,195.410 78.324,195.708 78.287 C 196.006 78.250,195.762 78.220,195.167 78.220 C 194.571 78.220,194.327 78.250,194.625 78.287 M204.292 78.287 C 204.590 78.324,205.077 78.324,205.375 78.287 C 205.673 78.250,205.429 78.220,204.833 78.220 C 204.237 78.220,203.994 78.250,204.292 78.287 M191.625 78.451 C 191.831 78.491,192.169 78.491,192.375 78.451 C 192.581 78.411,192.412 78.379,192.000 78.379 C 191.588 78.379,191.419 78.411,191.625 78.451 M207.627 78.451 C 207.834 78.491,208.134 78.490,208.294 78.448 C 208.453 78.406,208.283 78.374,207.917 78.375 C 207.550 78.377,207.420 78.411,207.627 78.451 M189.375 78.615 C 189.535 78.657,189.798 78.657,189.958 78.615 C 190.119 78.573,189.987 78.539,189.667 78.539 C 189.346 78.539,189.215 78.573,189.375 78.615 M210.042 78.615 C 210.202 78.657,210.465 78.657,210.625 78.615 C 210.785 78.573,210.654 78.539,210.333 78.539 C 210.012 78.539,209.881 78.573,210.042 78.615 M76.991 82.625 L 76.417 83.250 77.042 82.676 C 77.385 82.360,77.667 82.078,77.667 82.051 C 77.667 81.923,77.526 82.043,76.991 82.625 M324.000 83.885 C 324.000 83.914,324.244 84.158,324.542 84.427 L 325.083 84.917 324.594 84.375 C 324.138 83.870,324.000 83.757,324.000 83.885 M74.406 85.375 L 73.917 85.917 74.458 85.427 C 74.756 85.158,75.000 84.914,75.000 84.885 C 75.000 84.757,74.862 84.870,74.406 85.375 M117.740 110.042 L 117.250 110.583 117.792 110.094 C 118.090 109.825,118.333 109.581,118.333 109.552 C 118.333 109.423,118.196 109.537,117.740 110.042 M282.333 110.219 C 282.333 110.248,282.577 110.491,282.875 110.760 L 283.417 111.250 282.927 110.708 C 282.471 110.203,282.333 110.090,282.333 110.219 M113.748 113.875 L 111.417 116.250 113.792 113.919 C 115.998 111.753,116.242 111.500,116.123 111.500 C 116.099 111.500,115.030 112.569,113.748 113.875 M109.906 117.875 L 109.417 118.417 109.958 117.927 C 110.256 117.658,110.500 117.414,110.500 117.385 C 110.500 117.257,110.362 117.370,109.906 117.875 M193.958 145.292 C 197.281 145.317,202.719 145.317,206.042 145.292 C 209.365 145.266,206.646 145.246,200.000 145.246 C 193.354 145.246,190.635 145.266,193.958 145.292 M198.958 154.623 C 199.531 154.656,200.469 154.656,201.042 154.623 C 201.615 154.591,201.146 154.564,200.000 154.564 C 198.854 154.564,198.385 154.591,198.958 154.623 M168.909 166.875 L 168.250 167.583 168.958 166.925 C 169.617 166.312,169.743 166.167,169.617 166.167 C 169.590 166.167,169.271 166.485,168.909 166.875 M166.742 169.042 L 166.083 169.750 166.792 169.091 C 167.450 168.478,167.577 168.333,167.450 168.333 C 167.423 168.333,167.105 168.652,166.742 169.042 M145.246 199.917 C 145.246 206.517,145.266 209.192,145.292 205.863 C 145.317 202.533,145.317 197.133,145.292 193.863 C 145.266 190.592,145.246 193.317,145.246 199.917 M321.205 188.500 C 321.205 188.821,321.240 188.952,321.282 188.792 C 321.323 188.631,321.323 188.369,321.282 188.208 C 321.240 188.048,321.205 188.179,321.205 188.500 M78.539 189.667 C 78.539 189.987,78.573 190.119,78.615 189.958 C 78.657 189.798,78.657 189.535,78.615 189.375 C 78.573 189.215,78.539 189.346,78.539 189.667 M321.375 190.417 C 321.377 190.783,321.411 190.914,321.451 190.706 C 321.491 190.499,321.490 190.199,321.448 190.040 C 321.406 189.880,321.374 190.050,321.375 190.417 M30.209 190.750 C 30.211 191.117,30.245 191.247,30.285 191.040 C 30.324 190.832,30.323 190.532,30.281 190.373 C 30.239 190.214,30.207 190.383,30.209 190.750 M78.379 192.000 C 78.379 192.412,78.411 192.581,78.451 192.375 C 78.491 192.169,78.491 191.831,78.451 191.625 C 78.411 191.419,78.379 191.588,78.379 192.000 M369.712 192.333 C 369.712 192.746,369.745 192.915,369.784 192.708 C 369.824 192.502,369.824 192.165,369.784 191.958 C 369.745 191.752,369.712 191.921,369.712 192.333 M321.550 193.167 C 321.550 193.671,321.581 193.877,321.619 193.625 C 321.658 193.373,321.658 192.960,321.619 192.708 C 321.581 192.456,321.550 192.662,321.550 193.167 M30.057 194.917 C 30.058 195.650,30.087 195.929,30.122 195.537 C 30.157 195.145,30.157 194.545,30.121 194.204 C 30.085 193.863,30.057 194.183,30.057 194.917 M78.220 195.167 C 78.220 195.762,78.250 196.006,78.287 195.708 C 78.324 195.410,78.324 194.923,78.287 194.625 C 78.250 194.327,78.220 194.571,78.220 195.167 M321.738 200.000 C 321.738 202.154,321.762 203.035,321.791 201.958 C 321.820 200.881,321.820 199.119,321.791 198.042 C 321.762 196.965,321.738 197.846,321.738 200.000 M369.905 199.917 C 369.905 202.025,369.929 202.865,369.958 201.782 C 369.987 200.700,369.987 198.975,369.958 197.949 C 369.928 196.923,369.905 197.808,369.905 199.917 M154.564 200.000 C 154.564 201.146,154.591 201.615,154.623 201.042 C 154.656 200.469,154.656 199.531,154.623 198.958 C 154.591 198.385,154.564 198.854,154.564 200.000 M30.058 205.000 C 30.058 205.779,30.087 206.098,30.122 205.708 C 30.157 205.319,30.157 204.681,30.122 204.292 C 30.087 203.902,30.058 204.221,30.058 205.000 M78.220 204.833 C 78.220 205.429,78.250 205.673,78.287 205.375 C 78.324 205.077,78.324 204.590,78.287 204.292 C 78.250 203.994,78.220 204.237,78.220 204.833 M321.550 206.833 C 321.550 207.338,321.581 207.544,321.619 207.292 C 321.658 207.040,321.658 206.627,321.619 206.375 C 321.581 206.123,321.550 206.329,321.550 206.833 M369.714 207.583 C 369.716 208.042,369.748 208.209,369.786 207.956 C 369.825 207.703,369.824 207.328,369.784 207.123 C 369.744 206.918,369.713 207.125,369.714 207.583 M78.375 207.917 C 78.377 208.283,78.411 208.414,78.451 208.206 C 78.491 207.999,78.490 207.699,78.448 207.540 C 78.406 207.380,78.374 207.550,78.375 207.917 M30.209 209.250 C 30.211 209.617,30.245 209.747,30.285 209.540 C 30.324 209.332,30.323 209.032,30.281 208.873 C 30.239 208.714,30.207 208.883,30.209 209.250 M321.372 209.500 C 321.372 209.821,321.406 209.952,321.448 209.792 C 321.490 209.631,321.490 209.369,321.448 209.208 C 321.406 209.048,321.372 209.179,321.372 209.500 M78.539 210.333 C 78.539 210.654,78.573 210.785,78.615 210.625 C 78.657 210.465,78.657 210.202,78.615 210.042 C 78.573 209.881,78.539 210.012,78.539 210.333 M30.372 211.833 C 30.372 212.154,30.406 212.285,30.448 212.125 C 30.490 211.965,30.490 211.702,30.448 211.542 C 30.406 211.381,30.372 211.512,30.372 211.833 M233.167 231.083 C 232.762 231.496,232.468 231.833,232.514 231.833 C 232.560 231.833,232.928 231.496,233.333 231.083 C 233.738 230.671,234.032 230.333,233.986 230.333 C 233.940 230.333,233.572 230.671,233.167 231.083 M231.000 233.250 C 230.595 233.662,230.301 234.000,230.347 234.000 C 230.393 234.000,230.762 233.662,231.167 233.250 C 231.572 232.838,231.865 232.500,231.819 232.500 C 231.774 232.500,231.405 232.838,231.000 233.250 M110.167 282.385 C 110.167 282.414,110.410 282.658,110.708 282.927 L 111.250 283.417 110.760 282.875 C 110.304 282.370,110.167 282.257,110.167 282.385 M285.998 286.125 L 283.250 288.917 286.042 286.169 C 287.577 284.657,288.833 283.401,288.833 283.377 C 288.833 283.258,288.551 283.531,285.998 286.125 M281.740 290.208 L 281.250 290.750 281.792 290.260 C 282.297 289.804,282.410 289.667,282.281 289.667 C 282.252 289.667,282.009 289.910,281.740 290.208 M325.573 314.375 L 325.083 314.917 325.625 314.427 C 326.130 313.971,326.243 313.833,326.115 313.833 C 326.086 313.833,325.842 314.077,325.573 314.375 M75.250 315.500 C 75.608 315.867,75.938 316.167,75.984 316.167 C 76.030 316.167,75.775 315.867,75.417 315.500 C 75.059 315.133,74.728 314.833,74.682 314.833 C 74.637 314.833,74.892 315.133,75.250 315.500 M323.073 317.042 L 322.583 317.583 323.125 317.094 C 323.630 316.638,323.743 316.500,323.615 316.500 C 323.586 316.500,323.342 316.744,323.073 317.042 M79.833 320.250 C 81.160 321.579,82.283 322.667,82.329 322.667 C 82.375 322.667,81.327 321.579,80.000 320.250 C 78.673 318.921,77.550 317.833,77.504 317.833 C 77.458 317.833,78.507 318.921,79.833 320.250 M188.208 321.282 C 188.369 321.323,188.631 321.323,188.792 321.282 C 188.952 321.240,188.821 321.205,188.500 321.205 C 188.179 321.205,188.048 321.240,188.208 321.282 M190.127 321.451 C 190.334 321.491,190.634 321.490,190.794 321.448 C 190.953 321.406,190.783 321.374,190.417 321.375 C 190.050 321.377,189.920 321.411,190.127 321.451 M209.127 321.451 C 209.334 321.491,209.634 321.490,209.794 321.448 C 209.953 321.406,209.783 321.374,209.417 321.375 C 209.050 321.377,208.920 321.411,209.127 321.451 M192.708 321.619 C 192.960 321.658,193.373 321.658,193.625 321.619 C 193.877 321.581,193.671 321.550,193.167 321.550 C 192.662 321.550,192.456 321.581,192.708 321.619 M206.375 321.619 C 206.627 321.658,207.040 321.658,207.292 321.619 C 207.544 321.581,207.338 321.550,206.833 321.550 C 206.329 321.550,206.123 321.581,206.375 321.619 M198.042 321.791 C 199.119 321.820,200.881 321.820,201.958 321.791 C 203.035 321.762,202.154 321.738,200.000 321.738 C 197.846 321.738,196.965 321.762,198.042 321.791 M316.906 323.208 L 316.417 323.750 316.958 323.260 C 317.463 322.804,317.577 322.667,317.448 322.667 C 317.419 322.667,317.175 322.910,316.906 323.208 M83.833 324.052 C 83.833 324.081,84.077 324.325,84.375 324.594 L 84.917 325.083 84.427 324.542 C 83.971 324.037,83.833 323.923,83.833 324.052 M314.240 325.708 L 313.750 326.250 314.292 325.760 C 314.797 325.304,314.910 325.167,314.781 325.167 C 314.752 325.167,314.509 325.410,314.240 325.708 M210.375 369.615 C 210.535 369.657,210.798 369.657,210.958 369.615 C 211.119 369.573,210.987 369.539,210.667 369.539 C 210.346 369.539,210.215 369.573,210.375 369.615 M191.958 369.784 C 192.165 369.824,192.502 369.824,192.708 369.784 C 192.915 369.745,192.746 369.712,192.333 369.712 C 191.921 369.712,191.752 369.745,191.958 369.784 M207.211 369.786 C 207.464 369.825,207.839 369.824,208.044 369.784 C 208.249 369.744,208.042 369.713,207.583 369.714 C 207.125 369.716,206.957 369.748,207.211 369.786 M198.051 369.958 C 199.133 369.987,200.858 369.987,201.884 369.958 C 202.910 369.928,202.025 369.905,199.917 369.905 C 197.808 369.905,196.969 369.929,198.051 369.958 " stroke="none" fill="#1c517e" fill-rule="evenodd"></path></g></svg>