<?xml version="1.0" encoding="UTF-8"?>
<svg xmlns="http://www.w3.org/2000/svg" xmlns:xlink="http://www.w3.org/1999/xlink" width="160pt" height="160pt" viewBox="0 0 160 160" version="1.1">
<g id="surface1">
<path style=" stroke:none;fill-rule:evenodd;fill:rgb(1.568627%,58.039216%,98.823529%);fill-opacity:1;" d="M 75.191406 0.0625 C 72.207031 0.171875 68.484375 0.640625 64.578125 1.398438 C 63.832031 1.542969 63.039062 1.695312 62.820312 1.734375 C 62.105469 1.855469 60.058594 2.371094 58.59375 2.792969 C 57.808594 3.023438 57.066406 3.226562 56.945312 3.242188 C 56.820312 3.257812 55.863281 3.570312 54.816406 3.929688 C 53.765625 4.289062 52.714844 4.648438 52.476562 4.726562 C 51.949219 4.90625 50.109375 5.617188 49.648438 5.820312 C 49.46875 5.898438 49.046875 6.082031 48.71875 6.210938 C 46.976562 6.929688 44.273438 8.195312 42.929688 8.925781 C 42.492188 9.164062 41.820312 9.523438 41.433594 9.726562 C 41.050781 9.925781 40.308594 10.347656 39.785156 10.664062 C 39.265625 10.980469 38.820312 11.242188 38.796875 11.242188 C 38.730469 11.242188 37.03125 12.3125 36.820312 12.484375 C 36.714844 12.570312 36.492188 12.714844 36.320312 12.800781 C 35.871094 13.03125 32.445312 15.417969 32.070312 15.757812 C 32.007812 15.820312 31.792969 15.976562 31.585938 16.113281 C 31.382812 16.25 30.996094 16.539062 30.726562 16.769531 C 30.457031 16.996094 29.980469 17.378906 29.667969 17.617188 C 29.351562 17.855469 28.859375 18.261719 28.566406 18.519531 C 28.273438 18.777344 27.898438 19.089844 27.738281 19.21875 C 27.570312 19.34375 27.273438 19.601562 27.070312 19.789062 C 26.867188 19.976562 26.359375 20.445312 25.9375 20.820312 C 24.953125 21.707031 21.707031 24.953125 20.820312 25.9375 C 20.445312 26.359375 19.976562 26.867188 19.789062 27.070312 C 19.601562 27.273438 19.34375 27.570312 19.21875 27.738281 C 19.089844 27.898438 18.777344 28.273438 18.519531 28.566406 C 18.261719 28.859375 17.855469 29.351562 17.617188 29.667969 C 17.378906 29.980469 16.996094 30.457031 16.769531 30.726562 C 16.539062 30.996094 16.25 31.382812 16.113281 31.585938 C 15.976562 31.792969 15.820312 32.007812 15.757812 32.070312 C 15.417969 32.445312 13.03125 35.871094 12.800781 36.320312 C 12.714844 36.492188 12.570312 36.714844 12.484375 36.820312 C 12.3125 37.03125 11.242188 38.730469 11.242188 38.796875 C 11.242188 38.820312 10.980469 39.265625 10.664062 39.785156 C 10.347656 40.308594 9.925781 41.050781 9.726562 41.433594 C 9.523438 41.820312 9.164062 42.492188 8.925781 42.929688 C 8.195312 44.273438 6.929688 46.976562 6.210938 48.71875 C 6.082031 49.046875 5.898438 49.46875 5.820312 49.648438 C 5.617188 50.109375 4.90625 51.949219 4.726562 52.476562 C 4.648438 52.714844 4.289062 53.765625 3.929688 54.816406 C 3.570312 55.863281 3.257812 56.820312 3.242188 56.945312 C 3.226562 57.066406 3.023438 57.808594 2.792969 58.59375 C 2.371094 60.058594 1.855469 62.105469 1.734375 62.820312 C 1.695312 63.039062 1.542969 63.832031 1.398438 64.578125 C 0.796875 67.6875 0.394531 70.601562 0.121094 73.792969 C 0.00390625 75.183594 0.00390625 84.441406 0.121094 85.832031 C 0.394531 89.023438 0.804688 92.003906 1.398438 95.042969 C 1.542969 95.792969 1.695312 96.585938 1.734375 96.804688 C 1.855469 97.511719 2.371094 99.558594 2.792969 101.03125 C 3.023438 101.816406 3.226562 102.558594 3.242188 102.679688 C 3.257812 102.804688 3.570312 103.761719 3.929688 104.808594 C 4.289062 105.855469 4.648438 106.910156 4.726562 107.148438 C 5.066406 108.136719 5.742188 109.820312 6.6875 112.039062 C 7.132812 113.078125 8.511719 115.949219 8.957031 116.757812 C 9.179688 117.164062 9.523438 117.804688 9.726562 118.1875 C 9.925781 118.574219 10.347656 119.316406 10.664062 119.839844 C 10.980469 120.359375 11.242188 120.804688 11.242188 120.824219 C 11.242188 120.878906 12.269531 122.523438 12.523438 122.875 C 12.625 123.023438 12.851562 123.375 13.023438 123.65625 C 13.679688 124.734375 16.84375 129.117188 17.089844 129.292969 C 17.117188 129.3125 17.34375 129.601562 17.59375 129.925781 C 17.84375 130.257812 18.246094 130.75 18.492188 131.023438 C 18.734375 131.296875 19.066406 131.691406 19.226562 131.898438 C 20.207031 133.144531 24.488281 137.523438 26.273438 139.105469 C 26.765625 139.546875 27.179688 139.925781 27.191406 139.953125 C 27.203125 139.976562 27.414062 140.15625 27.65625 140.347656 C 27.898438 140.539062 28.328125 140.894531 28.597656 141.136719 C 28.871094 141.382812 29.367188 141.785156 29.699219 142.035156 C 30.023438 142.285156 30.410156 142.585938 30.550781 142.710938 C 30.683594 142.835938 31.042969 143.117188 31.347656 143.332031 C 31.648438 143.554688 31.925781 143.753906 31.960938 143.789062 C 32.289062 144.050781 33.707031 145.078125 34.371094 145.53125 C 34.820312 145.835938 35.433594 146.257812 35.734375 146.46875 C 36.039062 146.679688 36.316406 146.851562 36.359375 146.851562 C 36.398438 146.851562 36.585938 146.964844 36.769531 147.101562 C 37.429688 147.59375 40.28125 149.289062 41.78125 150.085938 C 42.351562 150.386719 43.039062 150.757812 43.308594 150.90625 C 44.261719 151.429688 47.523438 152.9375 48.789062 153.441406 C 49.078125 153.554688 49.433594 153.710938 49.582031 153.773438 C 50.21875 154.054688 51.945312 154.734375 52.308594 154.839844 C 52.53125 154.90625 53.476562 155.230469 54.414062 155.558594 C 55.355469 155.890625 56.339844 156.222656 56.609375 156.292969 C 56.882812 156.367188 57.800781 156.621094 58.664062 156.863281 C 60.425781 157.351562 62.457031 157.851562 63.152344 157.960938 C 63.40625 158.007812 64.140625 158.144531 64.78125 158.261719 C 67.738281 158.835938 70.722656 159.242188 73.824219 159.503906 C 75.269531 159.625 84.355469 159.625 85.796875 159.503906 C 88.898438 159.242188 91.835938 158.84375 94.910156 158.257812 C 95.585938 158.128906 96.320312 157.992188 96.539062 157.957031 C 97.199219 157.839844 99.304688 157.320312 100.960938 156.863281 C 103.523438 156.148438 103.628906 156.117188 105.304688 155.527344 C 106.191406 155.214844 107.09375 154.90625 107.3125 154.84375 C 108.695312 154.433594 114.546875 151.875 116.316406 150.90625 C 116.582031 150.757812 117.273438 150.386719 117.84375 150.085938 C 119.320312 149.304688 122.191406 147.597656 122.863281 147.101562 C 123.050781 146.964844 123.226562 146.851562 123.257812 146.851562 C 123.335938 146.851562 124.554688 146.035156 126.136719 144.914062 C 126.835938 144.414062 129.054688 142.75 129.261719 142.5625 C 129.371094 142.460938 129.6875 142.214844 129.960938 142.011719 C 130.234375 141.808594 130.601562 141.507812 130.78125 141.34375 C 130.953125 141.179688 131.378906 140.816406 131.71875 140.539062 C 133.796875 138.867188 138.859375 133.820312 140.394531 131.902344 C 140.585938 131.65625 140.933594 131.246094 141.164062 130.992188 C 141.390625 130.738281 141.785156 130.257812 142.035156 129.925781 C 142.289062 129.601562 142.546875 129.269531 142.617188 129.195312 C 142.75 129.054688 144.421875 126.832031 144.914062 126.136719 C 146.035156 124.554688 146.851562 123.335938 146.851562 123.257812 C 146.851562 123.226562 146.964844 123.050781 147.101562 122.863281 C 147.597656 122.191406 149.304688 119.320312 150.085938 117.84375 C 150.386719 117.273438 150.757812 116.582031 150.90625 116.316406 C 151.878906 114.539062 154.449219 108.664062 154.839844 107.3125 C 154.90625 107.09375 155.195312 106.242188 155.492188 105.417969 C 155.78125 104.597656 156.117188 103.609375 156.226562 103.226562 C 156.960938 100.722656 157.789062 97.503906 157.957031 96.539062 C 157.992188 96.320312 158.128906 95.585938 158.257812 94.910156 C 158.710938 92.527344 159.003906 90.585938 159.253906 88.324219 C 159.578125 85.386719 159.589844 85.023438 159.589844 79.8125 C 159.589844 74.601562 159.578125 74.238281 159.253906 71.300781 C 159.003906 69.03125 158.703125 67.0625 158.261719 64.78125 C 158.144531 64.140625 158.007812 63.40625 157.960938 63.152344 C 157.851562 62.457031 157.351562 60.425781 156.863281 58.664062 C 156.621094 57.800781 156.367188 56.882812 156.292969 56.609375 C 156.222656 56.339844 155.890625 55.355469 155.558594 54.414062 C 155.230469 53.476562 154.90625 52.53125 154.839844 52.308594 C 154.734375 51.945312 154.054688 50.21875 153.773438 49.582031 C 153.710938 49.433594 153.554688 49.078125 153.441406 48.789062 C 152.9375 47.523438 151.429688 44.261719 150.90625 43.308594 C 150.757812 43.039062 150.386719 42.351562 150.085938 41.78125 C 149.289062 40.28125 147.59375 37.429688 147.101562 36.769531 C 146.964844 36.585938 146.851562 36.398438 146.851562 36.359375 C 146.851562 36.316406 146.679688 36.039062 146.46875 35.734375 C 146.257812 35.433594 145.835938 34.820312 145.53125 34.371094 C 145.078125 33.707031 144.050781 32.289062 143.789062 31.960938 C 143.753906 31.925781 143.554688 31.648438 143.332031 31.347656 C 143.117188 31.042969 142.835938 30.683594 142.710938 30.550781 C 142.585938 30.410156 142.285156 30.023438 142.035156 29.699219 C 141.785156 29.367188 141.382812 28.871094 141.136719 28.597656 C 140.894531 28.328125 140.539062 27.898438 140.347656 27.65625 C 140.15625 27.414062 139.976562 27.203125 139.953125 27.191406 C 139.925781 27.179688 139.546875 26.765625 139.105469 26.273438 C 137.523438 24.488281 133.144531 20.207031 131.898438 19.226562 C 131.691406 19.066406 131.296875 18.734375 131.023438 18.492188 C 130.75 18.246094 130.257812 17.84375 129.925781 17.59375 C 129.601562 17.34375 129.3125 17.117188 129.292969 17.089844 C 129.117188 16.84375 124.734375 13.679688 123.65625 13.023438 C 123.375 12.851562 123.023438 12.625 122.875 12.523438 C 122.523438 12.269531 120.878906 11.242188 120.824219 11.242188 C 120.804688 11.242188 120.359375 10.980469 119.839844 10.664062 C 119.316406 10.347656 118.574219 9.925781 118.1875 9.726562 C 117.804688 9.523438 117.164062 9.179688 116.757812 8.957031 C 115.949219 8.511719 113.078125 7.132812 112.039062 6.6875 C 109.820312 5.742188 108.136719 5.066406 107.148438 4.726562 C 106.910156 4.648438 105.855469 4.289062 104.808594 3.929688 C 103.761719 3.570312 102.804688 3.257812 102.679688 3.242188 C 102.558594 3.226562 101.816406 3.023438 101.03125 2.792969 C 99.558594 2.371094 97.511719 1.855469 96.804688 1.734375 C 96.585938 1.695312 95.792969 1.542969 95.042969 1.398438 C 92.074219 0.820312 89.28125 0.425781 86.296875 0.164062 C 84.914062 0.0429688 77.539062 -0.0234375 75.191406 0.0625 M 83.335938 14.5 C 86.480469 14.691406 88.984375 15.011719 92.414062 15.664062 C 94.988281 16.15625 96.070312 16.425781 98.484375 17.164062 C 99.183594 17.382812 99.804688 17.558594 99.859375 17.558594 C 99.976562 17.558594 101.726562 18.1875 103.089844 18.722656 C 103.617188 18.929688 104.222656 19.152344 104.429688 19.222656 C 104.628906 19.292969 105.03125 19.460938 105.320312 19.589844 C 105.613281 19.722656 106.316406 20.039062 106.882812 20.292969 C 107.953125 20.777344 109.710938 21.648438 110.496094 22.089844 C 110.746094 22.230469 110.976562 22.347656 111.003906 22.347656 C 111.0625 22.347656 111.253906 22.460938 112.683594 23.304688 C 113.167969 23.589844 113.699219 23.902344 113.867188 23.992188 C 114.027344 24.085938 114.597656 24.449219 115.132812 24.804688 C 115.660156 25.164062 116.171875 25.492188 116.273438 25.546875 C 116.578125 25.710938 119.335938 27.714844 119.875 28.167969 C 120.164062 28.414062 120.507812 28.679688 120.644531 28.761719 C 120.773438 28.847656 121.136719 29.144531 121.445312 29.429688 C 121.757812 29.707031 122.226562 30.097656 122.492188 30.296875 C 122.753906 30.496094 122.976562 30.679688 122.992188 30.710938 C 123 30.742188 123.445312 31.152344 123.976562 31.632812 C 125.121094 32.667969 127.449219 35.011719 128.265625 35.949219 C 128.585938 36.316406 128.914062 36.675781 128.992188 36.746094 C 129.078125 36.820312 129.28125 37.058594 129.445312 37.28125 C 129.617188 37.5 129.964844 37.917969 130.226562 38.210938 C 130.492188 38.5 130.800781 38.875 130.910156 39.039062 C 131.023438 39.207031 131.25 39.503906 131.417969 39.699219 C 131.902344 40.273438 133.847656 42.941406 134.085938 43.351562 C 134.140625 43.449219 134.476562 43.960938 134.824219 44.492188 C 135.175781 45.023438 135.585938 45.667969 135.726562 45.925781 C 136.363281 47.042969 136.765625 47.726562 136.847656 47.820312 C 136.890625 47.875 137.273438 48.59375 137.695312 49.414062 C 138.753906 51.464844 138.871094 51.707031 139.363281 52.808594 C 139.597656 53.335938 139.886719 53.984375 140.007812 54.242188 C 140.121094 54.496094 140.285156 54.882812 140.367188 55.101562 C 140.453125 55.320312 140.703125 55.980469 140.925781 56.566406 C 141.523438 58.144531 142.132812 59.855469 142.132812 59.96875 C 142.132812 60.023438 142.292969 60.597656 142.492188 61.246094 C 143.34375 64.027344 143.855469 66.308594 144.425781 69.835938 C 145.929688 79.164062 145.230469 89.457031 142.492188 98.378906 C 142.292969 99.027344 142.132812 99.601562 142.132812 99.664062 C 142.132812 99.808594 141.402344 101.820312 140.367188 104.523438 C 140.289062 104.738281 140.121094 105.128906 140.007812 105.382812 C 139.886719 105.640625 139.597656 106.285156 139.363281 106.816406 C 139.128906 107.347656 138.789062 108.066406 138.617188 108.410156 C 137.605469 110.398438 136.921875 111.714844 136.847656 111.804688 C 136.800781 111.859375 136.46875 112.414062 136.113281 113.035156 C 135.757812 113.65625 135.175781 114.597656 134.820312 115.132812 C 134.472656 115.664062 134.140625 116.175781 134.085938 116.273438 C 133.839844 116.695312 131.898438 119.355469 131.421875 119.914062 C 131.25 120.117188 131.019531 120.417969 130.910156 120.585938 C 130.800781 120.75 130.492188 121.121094 130.226562 121.414062 C 129.964844 121.707031 129.609375 122.125 129.445312 122.34375 C 129.277344 122.566406 128.941406 122.953125 128.695312 123.210938 C 128.445312 123.464844 128.121094 123.824219 127.96875 124.007812 C 127.492188 124.574219 124.851562 127.210938 123.90625 128.054688 C 123.414062 128.5 123 128.882812 122.988281 128.914062 C 122.976562 128.945312 122.738281 129.140625 122.453125 129.355469 C 122.175781 129.574219 121.707031 129.960938 121.414062 130.226562 C 121.121094 130.492188 120.75 130.800781 120.585938 130.910156 C 120.417969 131.019531 120.117188 131.25 119.914062 131.421875 C 119.355469 131.898438 116.695312 133.839844 116.273438 134.085938 C 116.175781 134.140625 115.664062 134.472656 115.132812 134.820312 C 114.597656 135.175781 113.65625 135.757812 113.035156 136.113281 C 112.414062 136.46875 111.859375 136.800781 111.804688 136.847656 C 111.710938 136.921875 109.351562 138.152344 108.242188 138.703125 C 107.988281 138.828125 107.347656 139.125 106.816406 139.363281 C 106.285156 139.597656 105.640625 139.886719 105.382812 140.007812 C 105.128906 140.121094 104.738281 140.289062 104.523438 140.367188 C 101.820312 141.402344 99.808594 142.132812 99.664062 142.132812 C 99.601562 142.132812 99.027344 142.292969 98.378906 142.492188 C 89.457031 145.230469 79.164062 145.929688 69.835938 144.425781 C 66.308594 143.855469 64.027344 143.34375 61.246094 142.492188 C 60.597656 142.292969 60.023438 142.132812 59.96875 142.132812 C 59.820312 142.132812 57.742188 141.378906 55.101562 140.367188 C 54.882812 140.289062 54.496094 140.121094 54.242188 140.007812 C 53.984375 139.886719 53.335938 139.597656 52.808594 139.363281 C 51.707031 138.871094 51.464844 138.753906 49.414062 137.695312 C 48.59375 137.273438 47.875 136.890625 47.820312 136.847656 C 47.726562 136.765625 47.042969 136.363281 45.925781 135.726562 C 45.667969 135.585938 45.023438 135.175781 44.492188 134.824219 C 43.960938 134.476562 43.449219 134.140625 43.351562 134.085938 C 42.941406 133.847656 40.273438 131.902344 39.699219 131.417969 C 39.503906 131.25 39.207031 131.023438 39.039062 130.910156 C 38.875 130.800781 38.5 130.492188 38.210938 130.226562 C 37.917969 129.964844 37.5 129.617188 37.28125 129.445312 C 37.058594 129.28125 36.820312 129.078125 36.746094 128.992188 C 36.675781 128.914062 36.316406 128.585938 35.949219 128.265625 C 35.011719 127.449219 32.667969 125.121094 31.632812 123.976562 C 31.152344 123.445312 30.742188 123 30.710938 122.992188 C 30.679688 122.976562 30.496094 122.753906 30.296875 122.492188 C 30.097656 122.226562 29.707031 121.757812 29.429688 121.445312 C 29.144531 121.136719 28.847656 120.773438 28.761719 120.644531 C 28.679688 120.507812 28.414062 120.164062 28.167969 119.875 C 27.714844 119.335938 25.710938 116.578125 25.546875 116.273438 C 25.492188 116.171875 25.164062 115.660156 24.804688 115.132812 C 24.449219 114.597656 24.085938 114.027344 23.992188 113.867188 C 23.902344 113.699219 23.589844 113.167969 23.304688 112.683594 C 22.460938 111.253906 22.347656 111.0625 22.347656 111.003906 C 22.347656 110.976562 22.230469 110.746094 22.089844 110.496094 C 21.648438 109.710938 20.777344 107.953125 20.292969 106.882812 C 20.039062 106.316406 19.722656 105.613281 19.589844 105.320312 C 19.460938 105.03125 19.292969 104.628906 19.222656 104.429688 C 19.152344 104.222656 18.929688 103.617188 18.722656 103.089844 C 18.1875 101.726562 17.558594 99.976562 17.558594 99.859375 C 17.558594 99.804688 17.382812 99.183594 17.164062 98.484375 C 16.425781 96.070312 16.15625 94.988281 15.664062 92.414062 C 13.972656 83.523438 13.980469 75.898438 15.695312 67.039062 C 16.179688 64.554688 16.460938 63.429688 17.164062 61.140625 C 17.382812 60.4375 17.558594 59.820312 17.558594 59.773438 C 17.558594 59.65625 18.214844 57.832031 18.722656 56.53125 C 18.929688 56.003906 19.152344 55.398438 19.222656 55.195312 C 19.292969 54.988281 19.464844 54.570312 19.609375 54.265625 C 19.75 53.957031 20.066406 53.257812 20.3125 52.710938 C 20.773438 51.691406 21.542969 50.132812 22.058594 49.195312 C 22.21875 48.902344 22.347656 48.648438 22.347656 48.617188 C 22.347656 48.5625 22.515625 48.261719 23.304688 46.945312 C 23.589844 46.460938 23.902344 45.929688 23.992188 45.761719 C 24.085938 45.59375 24.449219 45.023438 24.804688 44.492188 C 25.164062 43.964844 25.492188 43.453125 25.546875 43.351562 C 25.710938 43.046875 27.714844 40.289062 28.167969 39.746094 C 28.414062 39.460938 28.679688 39.113281 28.761719 38.980469 C 28.847656 38.851562 29.144531 38.488281 29.421875 38.179688 C 29.707031 37.867188 30.058594 37.445312 30.210938 37.246094 C 30.363281 37.042969 30.566406 36.804688 30.664062 36.714844 C 30.757812 36.621094 31.199219 36.144531 31.644531 35.648438 C 32.585938 34.59375 34.917969 32.265625 35.914062 31.390625 C 36.300781 31.054688 36.675781 30.710938 36.746094 30.632812 C 36.820312 30.550781 37.042969 30.363281 37.246094 30.210938 C 37.445312 30.058594 37.867188 29.707031 38.179688 29.421875 C 38.488281 29.144531 38.851562 28.847656 38.980469 28.761719 C 39.113281 28.679688 39.460938 28.414062 39.746094 28.167969 C 40.289062 27.714844 43.046875 25.710938 43.351562 25.546875 C 43.453125 25.492188 43.964844 25.164062 44.492188 24.804688 C 45.023438 24.449219 45.59375 24.085938 45.761719 23.992188 C 45.929688 23.902344 46.460938 23.589844 46.945312 23.304688 C 48.261719 22.515625 48.5625 22.347656 48.617188 22.347656 C 48.648438 22.347656 48.902344 22.21875 49.195312 22.058594 C 50.132812 21.542969 51.691406 20.773438 52.710938 20.3125 C 53.257812 20.066406 53.957031 19.75 54.265625 19.609375 C 54.570312 19.464844 54.988281 19.292969 55.195312 19.222656 C 55.398438 19.152344 56.003906 18.929688 56.53125 18.722656 C 57.832031 18.214844 59.65625 17.558594 59.773438 17.558594 C 59.820312 17.558594 60.4375 17.382812 61.140625 17.164062 C 63.429688 16.460938 64.554688 16.179688 67.039062 15.695312 C 72.636719 14.613281 78.3125 14.195312 83.335938 14.5 M 76.820312 20.359375 C 73.367188 20.539062 70.097656 20.960938 67.144531 21.621094 C 66.085938 21.859375 65.523438 21.996094 63.351562 22.554688 C 62.878906 22.679688 61.417969 23.164062 59.179688 23.9375 C 58.316406 24.234375 56.742188 24.875 55.867188 25.289062 C 55.554688 25.429688 55.167969 25.597656 55.003906 25.652344 C 54.839844 25.710938 54.152344 26.039062 53.476562 26.390625 C 52.800781 26.738281 52.035156 27.128906 51.78125 27.253906 C 51.523438 27.378906 50.90625 27.726562 50.398438 28.023438 C 49.894531 28.320312 49.304688 28.664062 49.085938 28.78125 C 48.523438 29.085938 45.429688 31.144531 44.867188 31.589844 C 44.609375 31.796875 44.320312 31.996094 44.230469 32.046875 C 44.136719 32.09375 43.714844 32.414062 43.300781 32.765625 C 42.878906 33.117188 42.445312 33.460938 42.339844 33.523438 C 41.808594 33.859375 39.226562 36.191406 37.710938 37.710938 C 36.191406 39.226562 33.859375 41.808594 33.523438 42.339844 C 33.460938 42.445312 33.117188 42.878906 32.765625 43.300781 C 32.414062 43.714844 32.09375 44.136719 32.046875 44.230469 C 31.996094 44.320312 31.796875 44.609375 31.589844 44.867188 C 31.144531 45.429688 29.085938 48.523438 28.78125 49.085938 C 28.664062 49.304688 28.320312 49.894531 28.023438 50.398438 C 27.726562 50.90625 27.378906 51.523438 27.253906 51.78125 C 27.128906 52.035156 26.738281 52.800781 26.390625 53.476562 C 26.039062 54.152344 25.710938 54.839844 25.652344 55.003906 C 25.597656 55.167969 25.429688 55.554688 25.289062 55.867188 C 24.875 56.742188 24.234375 58.316406 23.9375 59.179688 C 23.164062 61.417969 22.679688 62.878906 22.554688 63.351562 C 21.996094 65.523438 21.859375 66.085938 21.621094 67.144531 C 20.421875 72.511719 20 79.035156 20.484375 84.667969 C 20.867188 89.160156 21.210938 91.054688 22.554688 96.269531 C 22.683594 96.773438 23.296875 98.621094 23.964844 100.539062 C 24.261719 101.390625 25.023438 103.238281 25.367188 103.929688 C 25.460938 104.121094 25.59375 104.445312 25.664062 104.648438 C 25.738281 104.851562 26.074219 105.554688 26.414062 106.203125 C 26.75 106.851562 27.128906 107.585938 27.257812 107.847656 C 27.382812 108.101562 27.726562 108.726562 28.023438 109.226562 C 28.320312 109.734375 28.664062 110.324219 28.78125 110.542969 C 29.242188 111.382812 31.425781 114.617188 31.835938 115.0625 C 31.921875 115.152344 31.992188 115.257812 31.992188 115.292969 C 31.992188 115.359375 32.734375 116.335938 33.007812 116.625 C 33.078125 116.699219 33.226562 116.886719 33.34375 117.042969 C 35.09375 119.398438 39.671875 124.042969 42.046875 125.867188 C 42.1875 125.976562 42.546875 126.265625 42.84375 126.503906 C 43.320312 126.882812 43.757812 127.222656 44.664062 127.890625 C 45.242188 128.320312 46.628906 129.292969 46.664062 129.292969 C 46.679688 129.292969 47.140625 129.597656 47.683594 129.960938 C 48.230469 130.328125 48.855469 130.726562 49.074219 130.84375 C 49.296875 130.960938 49.886719 131.300781 50.394531 131.601562 C 50.898438 131.890625 51.460938 132.210938 51.648438 132.304688 C 51.828125 132.398438 52.1875 132.582031 52.445312 132.714844 C 53.355469 133.195312 55.1875 134.085938 55.257812 134.085938 C 55.304688 134.085938 55.492188 134.164062 55.683594 134.253906 C 56.195312 134.503906 58.085938 135.304688 58.632812 135.496094 C 60.769531 136.269531 63.101562 137.035156 63.851562 137.210938 C 64.050781 137.257812 64.613281 137.398438 65.097656 137.519531 C 67.222656 138.054688 69.375 138.492188 71.101562 138.730469 C 72.027344 138.859375 72.367188 138.898438 74.625 139.105469 C 77.90625 139.414062 81.734375 139.414062 85 139.105469 C 85.566406 139.050781 86.386719 138.976562 86.828125 138.933594 C 88.992188 138.738281 91.476562 138.277344 94.410156 137.542969 C 94.960938 137.410156 95.570312 137.257812 95.773438 137.210938 C 96.519531 137.035156 98.734375 136.308594 100.992188 135.496094 C 101.523438 135.304688 103.417969 134.507812 103.941406 134.253906 C 104.132812 134.164062 104.324219 134.085938 104.371094 134.085938 C 104.449219 134.085938 106.351562 133.15625 107.246094 132.683594 C 107.46875 132.566406 107.796875 132.398438 107.976562 132.304688 C 108.164062 132.214844 108.726562 131.898438 109.230469 131.601562 C 109.738281 131.300781 110.335938 130.960938 110.558594 130.835938 C 110.789062 130.714844 111.410156 130.320312 111.949219 129.957031 C 112.488281 129.589844 112.945312 129.292969 112.964844 129.292969 C 113.011719 129.292969 114.6875 128.117188 114.839844 127.976562 C 114.914062 127.90625 115.101562 127.765625 115.265625 127.664062 C 115.589844 127.460938 116.167969 127.023438 116.527344 126.707031 C 116.65625 126.589844 116.886719 126.398438 117.042969 126.285156 C 119.738281 124.261719 124.261719 119.738281 126.285156 117.042969 C 126.398438 116.886719 126.589844 116.65625 126.707031 116.527344 C 127.023438 116.167969 127.460938 115.589844 127.664062 115.265625 C 127.765625 115.101562 127.90625 114.914062 127.976562 114.839844 C 128.117188 114.6875 129.292969 113.011719 129.292969 112.964844 C 129.292969 112.945312 129.589844 112.488281 129.957031 111.949219 C 130.320312 111.410156 130.714844 110.789062 130.835938 110.558594 C 130.960938 110.335938 131.300781 109.738281 131.601562 109.230469 C 131.898438 108.726562 132.214844 108.164062 132.304688 107.976562 C 132.398438 107.796875 132.566406 107.46875 132.683594 107.246094 C 133.15625 106.351562 134.085938 104.449219 134.085938 104.371094 C 134.085938 104.324219 134.164062 104.132812 134.253906 103.941406 C 134.507812 103.417969 135.304688 101.523438 135.496094 100.992188 C 136.308594 98.734375 137.035156 96.519531 137.210938 95.773438 C 137.257812 95.570312 137.410156 94.960938 137.542969 94.410156 C 138.277344 91.476562 138.738281 88.992188 138.933594 86.828125 C 138.976562 86.386719 139.050781 85.566406 139.105469 85 C 139.414062 81.734375 139.414062 77.90625 139.105469 74.625 C 138.898438 72.367188 138.859375 72.027344 138.730469 71.101562 C 138.492188 69.375 138.054688 67.222656 137.519531 65.097656 C 137.398438 64.613281 137.257812 64.050781 137.210938 63.851562 C 137.035156 63.101562 136.269531 60.769531 135.496094 58.632812 C 135.304688 58.085938 134.503906 56.195312 134.253906 55.683594 C 134.164062 55.492188 134.085938 55.304688 134.085938 55.257812 C 134.085938 55.1875 133.195312 53.355469 132.714844 52.445312 C 132.582031 52.1875 132.398438 51.828125 132.304688 51.648438 C 132.210938 51.460938 131.890625 50.898438 131.601562 50.394531 C 131.300781 49.886719 130.960938 49.296875 130.84375 49.074219 C 130.726562 48.855469 130.328125 48.230469 129.960938 47.683594 C 129.597656 47.140625 129.292969 46.679688 129.292969 46.664062 C 129.292969 46.628906 128.320312 45.242188 127.890625 44.664062 C 127.222656 43.757812 126.882812 43.320312 126.503906 42.84375 C 126.265625 42.546875 125.976562 42.1875 125.867188 42.046875 C 124.042969 39.671875 119.398438 35.09375 117.042969 33.34375 C 116.886719 33.226562 116.699219 33.078125 116.625 33.007812 C 116.335938 32.734375 115.359375 31.992188 115.292969 31.992188 C 115.257812 31.992188 115.152344 31.921875 115.0625 31.835938 C 114.617188 31.425781 111.382812 29.242188 110.542969 28.78125 C 110.324219 28.664062 109.734375 28.320312 109.226562 28.023438 C 108.726562 27.726562 108.101562 27.382812 107.847656 27.257812 C 107.585938 27.128906 106.851562 26.75 106.203125 26.414062 C 105.554688 26.074219 104.851562 25.738281 104.648438 25.664062 C 104.445312 25.59375 104.121094 25.460938 103.929688 25.367188 C 103.238281 25.023438 101.390625 24.261719 100.539062 23.964844 C 98.621094 23.296875 96.773438 22.683594 96.269531 22.554688 C 91.054688 21.210938 89.160156 20.867188 84.667969 20.484375 C 82.4375 20.292969 79.132812 20.242188 76.820312 20.359375 M 68.273438 57.183594 C 68.257812 57.234375 68.054688 57.355469 67.824219 57.460938 C 67.367188 57.667969 66.082031 58.429688 65.710938 58.71875 C 65.585938 58.8125 65.238281 59.058594 64.933594 59.261719 C 63.257812 60.382812 60.394531 63.242188 59.257812 64.929688 C 59.058594 65.230469 58.789062 65.613281 58.671875 65.777344 C 58.429688 66.109375 57.648438 67.421875 57.398438 67.941406 L 57.234375 68.273438 L 49.242188 68.289062 L 41.253906 68.304688 L 41.382812 67.824219 C 41.652344 66.863281 42.136719 65.554688 42.796875 64.015625 C 42.953125 63.652344 43.144531 63.195312 43.222656 63.007812 C 43.34375 62.710938 43.9375 61.554688 44.777344 59.988281 C 45.125 59.335938 46.367188 57.40625 47.019531 56.507812 C 47.332031 56.078125 47.683594 55.589844 47.804688 55.425781 C 48.128906 54.976562 48.414062 54.617188 48.8125 54.175781 C 49.007812 53.953125 49.257812 53.65625 49.359375 53.519531 C 49.902344 52.769531 52.769531 49.902344 53.519531 49.359375 C 53.65625 49.257812 53.953125 49.007812 54.175781 48.8125 C 54.617188 48.414062 54.976562 48.128906 55.425781 47.804688 C 55.589844 47.683594 56.078125 47.332031 56.507812 47.019531 C 57.40625 46.367188 59.335938 45.125 59.988281 44.777344 C 61.570312 43.929688 62.710938 43.34375 63.007812 43.222656 C 63.195312 43.148438 63.578125 42.984375 63.855469 42.863281 C 65.195312 42.273438 66.890625 41.644531 67.839844 41.382812 L 68.273438 41.261719 L 68.289062 49.179688 C 68.300781 53.535156 68.289062 57.136719 68.273438 57.183594 M 93.148438 41.820312 C 93.621094 41.984375 94.429688 42.300781 94.941406 42.519531 C 95.457031 42.734375 96.117188 43.011719 96.414062 43.132812 C 96.710938 43.257812 97.472656 43.628906 98.105469 43.964844 C 98.746094 44.304688 99.351562 44.628906 99.464844 44.679688 C 99.804688 44.847656 100.429688 45.226562 101.210938 45.742188 C 101.628906 46.007812 102.019531 46.246094 102.078125 46.273438 C 102.140625 46.296875 102.210938 46.332031 102.226562 46.351562 C 102.242188 46.375 102.527344 46.585938 102.855469 46.820312 C 103.1875 47.054688 103.65625 47.398438 103.902344 47.585938 C 104.148438 47.769531 104.476562 48.019531 104.644531 48.136719 C 104.804688 48.257812 105.144531 48.539062 105.398438 48.761719 C 105.644531 48.988281 105.972656 49.257812 106.117188 49.367188 C 106.863281 49.914062 109.941406 52.992188 110.28125 53.527344 C 110.34375 53.628906 110.585938 53.929688 110.832031 54.199219 C 111.070312 54.46875 111.398438 54.855469 111.550781 55.0625 C 111.699219 55.265625 111.90625 55.539062 112.007812 55.671875 C 112.34375 56.117188 113.398438 57.601562 113.398438 57.628906 C 113.398438 57.644531 113.667969 58.078125 113.996094 58.585938 C 114.785156 59.8125 116.347656 62.730469 116.617188 63.484375 C 116.664062 63.632812 116.90625 64.210938 117.144531 64.78125 C 117.679688 66.054688 118.035156 67.039062 118.222656 67.757812 L 118.367188 68.304688 L 102.414062 68.304688 L 102.242188 67.925781 C 101.859375 67.0625 100.332031 64.753906 99.578125 63.890625 C 99.320312 63.589844 99.023438 63.230469 98.910156 63.085938 C 98.335938 62.304688 95.492188 59.730469 94.558594 59.148438 C 94.398438 59.042969 93.917969 58.726562 93.492188 58.445312 C 93.070312 58.15625 92.414062 57.765625 92.039062 57.566406 L 91.351562 57.210938 L 91.335938 49.230469 L 91.320312 41.253906 L 91.800781 41.382812 C 92.066406 41.453125 92.671875 41.652344 93.148438 41.820312 M 57.566406 92.039062 C 57.765625 92.414062 58.15625 93.070312 58.445312 93.492188 C 58.726562 93.917969 59.042969 94.398438 59.148438 94.558594 C 59.730469 95.492188 62.304688 98.335938 63.085938 98.910156 C 63.230469 99.023438 63.589844 99.320312 63.890625 99.578125 C 64.753906 100.332031 67.121094 101.898438 67.890625 102.226562 L 68.242188 102.378906 L 68.242188 110.347656 C 68.242188 114.734375 68.226562 118.320312 68.210938 118.320312 C 67.878906 118.320312 66.132812 117.71875 64.648438 117.085938 C 64.152344 116.878906 63.632812 116.664062 63.484375 116.617188 C 62.730469 116.347656 59.8125 114.785156 58.585938 113.996094 C 58.078125 113.667969 57.644531 113.398438 57.628906 113.398438 C 57.601562 113.398438 56.117188 112.34375 55.671875 112.007812 C 55.539062 111.90625 55.265625 111.699219 55.0625 111.550781 C 54.855469 111.398438 54.46875 111.070312 54.199219 110.832031 C 53.929688 110.585938 53.628906 110.34375 53.527344 110.28125 C 52.992188 109.941406 49.914062 106.863281 49.367188 106.117188 C 49.257812 105.972656 48.988281 105.644531 48.761719 105.398438 C 48.539062 105.144531 48.257812 104.804688 48.136719 104.644531 C 48.019531 104.476562 47.769531 104.148438 47.585938 103.902344 C 47.398438 103.65625 47.054688 103.1875 46.820312 102.855469 C 46.585938 102.527344 46.375 102.242188 46.351562 102.226562 C 46.332031 102.210938 46.296875 102.140625 46.273438 102.078125 C 46.246094 102.019531 46.007812 101.628906 45.742188 101.210938 C 45.226562 100.429688 44.847656 99.804688 44.679688 99.464844 C 44.628906 99.351562 44.304688 98.746094 43.964844 98.105469 C 43.628906 97.472656 43.257812 96.710938 43.132812 96.414062 C 43.011719 96.117188 42.734375 95.457031 42.519531 94.941406 C 42.078125 93.902344 41.582031 92.53125 41.382812 91.800781 L 41.253906 91.320312 L 49.230469 91.335938 L 57.210938 91.351562 L 57.566406 92.039062 M 118.214844 91.898438 C 117.980469 92.800781 117.421875 94.253906 116.410156 96.605469 C 115.957031 97.664062 114.667969 100.011719 113.886719 101.210938 C 113.617188 101.621094 113.398438 101.984375 113.398438 102.023438 C 113.398438 102.054688 113.363281 102.125 113.316406 102.171875 C 113.265625 102.21875 113.15625 102.367188 113.070312 102.492188 C 112.894531 102.75 111.929688 104.058594 111.523438 104.601562 C 111.382812 104.789062 111.082031 105.148438 110.859375 105.398438 C 110.636719 105.644531 110.367188 105.96875 110.261719 106.117188 C 109.695312 106.882812 106.65625 109.925781 106.097656 110.28125 C 105.996094 110.34375 105.695312 110.585938 105.425781 110.832031 C 105.15625 111.070312 104.785156 111.382812 104.597656 111.523438 C 104.054688 111.929688 102.746094 112.894531 102.492188 113.070312 C 102.367188 113.15625 102.21875 113.265625 102.171875 113.316406 C 102.125 113.363281 102.054688 113.398438 102.023438 113.398438 C 101.984375 113.398438 101.621094 113.617188 101.210938 113.886719 C 100.011719 114.667969 97.664062 115.957031 96.605469 116.410156 C 94.304688 117.398438 92.605469 118.054688 91.894531 118.21875 C 91.671875 118.269531 91.429688 118.332031 91.367188 118.355469 C 91.257812 118.398438 91.253906 117.992188 91.253906 110.425781 L 91.253906 102.445312 L 91.730469 102.230469 C 92.257812 101.992188 93.496094 101.246094 94.058594 100.828125 C 94.25 100.679688 94.429688 100.566406 94.453125 100.566406 C 94.507812 100.566406 95.46875 99.847656 95.742188 99.597656 C 95.851562 99.496094 96.144531 99.257812 96.390625 99.054688 C 96.976562 98.585938 98.585938 96.976562 99.054688 96.390625 C 99.257812 96.144531 99.496094 95.851562 99.597656 95.742188 C 99.847656 95.46875 100.566406 94.507812 100.566406 94.453125 C 100.566406 94.429688 100.679688 94.25 100.828125 94.058594 C 101.230469 93.519531 101.988281 92.269531 102.214844 91.765625 L 102.414062 91.320312 L 118.367188 91.320312 L 118.214844 91.898438 "/>
</g>
</svg>
